<?xml version="1.0" encoding="UTF-8" standalone="no"?>
<svg xmlns:rdf="http://www.w3.org/1999/02/22-rdf-syntax-ns#" xmlns="http://www.w3.org/2000/svg" text-rendering="geometricPrecision" xml:space="preserve" viewBox="0 0 40.86451 41.250282" shape-rendering="geometricPrecision" height="41.25" width="40.865" version="1.1" enable-background="new 0 0 56.611 56.846" image-rendering="optimizeQuality" y="0px" x="0px" xmlns:cc="http://creativecommons.org/ns#" xmlns:dc="http://purl.org/dc/elements/1.1/">
<path id="bgColor03" d="m22.999 19.719c4.577-0.624 9.186-1.754 13.91 1.253 2.709 2.518 1.076 10.298-2.416 11.515-5.488 0.848-9.263-1.984-13.167-4.383 1.36-1.154 3.56-3.994 1.673-8.385z"/>
<path id="bgColor00" d="m11.393 19.197c-1.657-2.127-3.451-4.188-4.591-6.658-0.789-1.709-1.265-3.613-1.167-5.869 0.825-3.604 8.38-6.081 11.18-3.666 3.492 4.348 2.896 9.03 2.773 13.628-3.125-1.332-6.842 0.07-8.195 2.565z"/>
<path id="bgColor01" d="m16.892 29.611c-1.764 4.298-3.075 8.892-8.071 11.495-3.534 1.088-9.456-4.217-8.765-7.85 2.004-5.159 6.308-6.994 10.324-9.166 0.49 2.884 3.147 5.469 6.512 5.521z"/>
<path fill="#fff" d="m17.77 0.0019924c11.132 1.227 21.711 9.15 23.083 21.358l0.012-3.823c-0.596-10.836-10.009-17.671-23.095-17.535z"/>
<circle id="bgColor02" cy="29.062" transform="translate(-10.614 -6.194)" cx="27.623" r="5.702"/>
<path fill="#fff" d="m12.102 18.162c-2.281-3.35-4.621-7.003-4.802-11.138 0.266-0.688 0.805-1.121 1.146-1.232 1.079 4.141 2.365 8.445 3.656 12.37z"/>
<path fill="#fff" d="m15.727 29.48c-1.76 3.65-3.754 7.503-7.244 9.727-0.729 0.114-1.373-0.137-1.641-0.376 3.046-3.007 6.131-6.271 8.885-9.351z"/>
<path fill="#fff" d="m23.502 21.131c4.041-0.3 8.375-0.5 12.046 1.411 0.463 0.573 0.568 1.257 0.494 1.608-4.126-1.134-8.495-2.174-12.54-3.019z"/>
</svg>
