<?xml version="1.0" encoding="UTF-8" standalone="no"?>
<svg xmlns="http://www.w3.org/2000/svg" xml:space="preserve" height="37.695" width="25.616" version="1.1" viewBox="0 0 25.615845 37.695411">
<path id="bgColor02" d="m3.9951 5.071c-1.512 3.1-5.779 11.501-3.167 15.927 4.811 8.153 1.871 16.427 2.159 15.928 5.614-6.054 4.263-13.312 3.023-16.071-2.715-6.048-2.312-9.381-2.015-15.784z"/>
<path id="bgColor01" d="m13.134-3.0505e-7c-1.787 3.664-6.8339 13.6-3.7449 18.834 5.6889 9.642 2.2129 19.426 2.5539 18.836 6.639-7.159 5.041-15.741 3.575-19.006-3.213-7.151-2.736-11.094-2.384-18.664z"/>
<path id="bgColor00" d="m22.536 1.769c-1.494 2.957-5.714 10.973-3.132 15.195 4.757 7.778 1.852 15.673 2.136 15.196 5.552-5.775 4.215-12.699 2.989-15.334-2.685-5.768-2.287-8.948-1.993-15.057z"/>
</svg>
