<?xml version="1.0" encoding="UTF-8" standalone="no"?>
<svg xmlns="http://www.w3.org/2000/svg" xml:space="preserve" height="38.332" width="37.641" version="1.1" viewBox="0 0 37.640999 38.332">
<polygon id="bgColor00" points="32.103 43.962 34.176 37.315 28.564 30.149 25.456 39.128 29.342 44.653 28.133 46.034 24.765 41.2 22.521 47.589 20.535 46.897 22.953 40.509 17.169 42.149 17.169 40.25 23.643 38.523 27.01 29.632 18.118 31.617 15.528 38.005 13.716 37.747 16.133 32.048 9.831 33.43 9.485 31.271 15.874 29.977 11.816 25.66 13.37 24.624 17.859 29.632 26.751 27.818 21.053 20.826 14.406 21.862 13.802 20.135 19.673 19.271 15.615 14.265 17.255 12.797 21.226 17.89 22.953 11.933 24.507 12.883 22.521 19.531 28.047 26.696 31.154 17.718 27.269 12.279 28.478 10.811 31.844 15.646 34.09 9.257 36.075 9.948 33.744 16.336 39.442 14.696 39.442 16.595 32.968 18.322 29.6 27.214 38.492 25.315 41.169 18.84 42.981 19.099 40.478 24.883 46.78 23.416 47.126 25.574 40.823 26.869 44.795 31.271 43.241 32.222 38.752 27.214 29.945 29.026 35.643 36.021 42.205 35.07 42.808 36.797 36.938 37.573 40.996 42.667 39.355 44.049 35.385 38.955 33.658 44.912" transform="translate(-9.485 -9.257)"/>
</svg>
