<?xml version="1.0" encoding="UTF-8" standalone="no"?>
<svg xmlns="http://www.w3.org/2000/svg" xml:space="preserve" height="36" width="96" version="1.1" viewBox="0 0 96 36">
<path id="bgColor00" d="m8.245 33.441h79.683c3.662 0 6.658-2.879 6.658-6.398v-19.2c0-3.52-2.996-6.4-6.658-6.4h-79.683c-3.662 0-6.659 2.881-6.659 6.4v19.2c0 3.52 2.997 6.398 6.659 6.398z" stroke="#a6a6a6" stroke-width="0.216" fill="#fff"/>
<linearGradient id="path2905_1_" y2="-221.86" gradientUnits="userSpaceOnUse" x2="394.53" gradientTransform="matrix(1 0 0 -1 -346.44 -220.46)" y1="-253.99" x1="394.53">
	<stop stop-opacity=".22" offset="0"/>
	<stop stop-color="#040404" stop-opacity=".1895" offset=".1051"/>
	<stop stop-color="#0f0f0f" stop-opacity=".1618" offset=".2006"/>
	<stop stop-color="#212121" stop-opacity=".13520" offset=".29230"/>
	<stop stop-color="#3b3b3b" stop-opacity=".1092" offset=".3818"/>
	<stop stop-color="#5d5d5d" stop-opacity=".0837" offset=".46970"/>
	<stop stop-color="#868686" stop-opacity=".0586" offset=".55630"/>
	<stop stop-color="#b7b7b7" stop-opacity=".0337" offset=".6419"/>
	<stop stop-color="#eee" stop-opacity=".0097" offset=".72470"/>
	<stop stop-color="#fbfbfb" stop-opacity=".0044" offset=".74290"/>
	<stop stop-color="#fff" stop-opacity="0" offset="1"/>
</linearGradient>
<path fill="url(#path2905_1_)" d="m87.928 1.442h-79.681c-3.662 0-6.66 2.881-6.66 6.4v19.2c0 3.521 2.998 6.399 6.66 6.399h79.681c3.662 0 6.658-2.879 6.658-6.399v-19.2c0-3.519-2.996-6.4-6.658-6.4zm5.013 24.781c0 3.289-2.889 5.981-6.418 5.981h-76.821c-3.53 0-6.419-2.692-6.419-5.981v-17.95c0-3.29 2.889-5.983 6.419-5.983h76.821c3.529 0 6.418 2.693 6.418 5.983v17.95z"/>
<linearGradient id="_53001832_2_" y2="583.76" gradientUnits="userSpaceOnUse" x2="741.01" gradientTransform="translate(-692.88 -575.91)" y1="606.89" x1="741.01">
	<stop stop-opacity=".16" offset=".0485"/>
	<stop stop-opacity=".05" offset=".3152"/>
	<stop stop-opacity="0.15" offset=".62420"/>
	<stop stop-color="#080808" stop-opacity=".1663" offset=".65650"/>
	<stop stop-color="#1e1e1e" stop-opacity=".19150" offset=".70630"/>
	<stop stop-color="#414141" stop-opacity=".22240" offset=".76740"/>
	<stop stop-color="#727272" stop-opacity=".25780" offset=".83740"/>
	<stop stop-color="#b1b1b1" stop-opacity="0.297" offset="0.915"/>
	<stop stop-color="#fdfdfd" stop-opacity="0.339" offset=".99790"/>
	<stop stop-color="#fff" stop-opacity=".34" offset="1"/>
</linearGradient>
<path fill="url(#_53001832_2_)" d="m9.684 30.975h77.224c2.32 0.096 5.963-1.812 6.031-4.625l0.015-18.397-89.651-0.103v17.582c0 3.41 2.832 5.543 6.381 5.543z"/>
<path opacity=".5" fill="#e6e6e6" d="m86.93 30.975h-77.225c-3.288 0-6.018-2.396-6.402-5.461v0.709c0 3.289 2.889 5.981 6.419 5.981h76.823c3.176 0 5.826-2.185 6.326-5.019-0.984 2.222-3.282 3.79-5.941 3.79z"/>
<path fill="#fcfcfc" d="m2.211 12.038c-0.022-2.055 0.015-4.168 0.051-5.08 0.06-1.473 1.743-4.628 4.903-5.171 27.373 0 54.746-0.155 82.119-0.155 2.541 0.35 4.649 2.861 4.684 4.189 0.026 1.105-1.062 2.688-3.879 2.686-22.905 0.094-63.901-0.414-80.958 0.325-3.776 0.163-5.887 2.183-6.92 3.206z"/>
</svg>
