<?xml version="1.0" encoding="UTF-8" standalone="no"?>
<svg xmlns:rdf="http://www.w3.org/1999/02/22-rdf-syntax-ns#" xmlns="http://www.w3.org/2000/svg" xml:space="preserve" height="36" width="96" version="1.1" xmlns:cc="http://creativecommons.org/ns#" xmlns:dc="http://purl.org/dc/elements/1.1/" viewBox="0 0 96 36">
<path id="bgColor00" d="m8.134 34h79.683c3.662 0 6.659-2.88 6.659-6.4v-19.2c0-3.52-2.997-6.4-6.66-6.4h-79.682c-3.662 0-6.659 2.88-6.659 6.399v19.2c0 3.521 2.997 6.401 6.659 6.401z" fill="#fff"/><path opacity=".2" d="m87.842 2h-79.683c-3.662 0-6.658 2.88-6.658 6.399v19.2c0 3.521 2.996 6.4 6.658 6.4h79.683c3.662 0 6.659-2.88 6.659-6.4v-19.2c0-3.519-2.997-6.399-6.659-6.399zm5.014 24.778c0 3.29-2.889 5.982-6.419 5.982h-76.822c-3.53 0-6.419-2.692-6.419-5.982v-17.947c0-3.291 2.889-5.982 6.419-5.982h76.822c3.53 0 6.419 2.691 6.419 5.982v17.947z" fill="#020202"/><path d="m9.544 31.531h76.876c3.533 0 6.424-2.791 6.424-6.201v-18.608h-89.724v18.608c0 3.41 2.891 6.201 6.424 6.201z" fill="none"/><path opacity=".5" d="m86.42 31.537h-76.876c-3.273 0-5.99-2.396-6.373-5.46v0.707c0 3.29 2.889 5.982 6.419 5.982h76.822c3.53 0 6.419-2.692 6.419-5.982v-1.208c-0.133 3.3-2.962 5.961-6.411 5.961z" fill="#fff"/><path d="m1.884 12.554c-0.021-2.055 0.014-4.167 0.051-5.079 0.06-1.474 1.743-4.628 4.903-5.171 27.373 0 54.746-0.155 82.119-0.155 2.541 0.349 4.651 2.86 4.684 4.189 0.026 1.104-1.061 2.688-3.879 2.685-22.905 0.093-63.901-0.413-80.959 0.326-3.775 0.163-5.886 2.182-6.919 3.205z" fill="#fff"/>
</svg>
