<?xml version="1.0" encoding="UTF-8" standalone="no"?>
<svg xmlns:rdf="http://www.w3.org/1999/02/22-rdf-syntax-ns#" xmlns="http://www.w3.org/2000/svg" xml:space="preserve" overflow="visible" height="592" viewBox="0 0 592 592" width="592" version="1.0" enable-background="new 0 0 592 592" xmlns:cc="http://creativecommons.org/ns#" xmlns:xlink="http://www.w3.org/1999/xlink" xmlns:dc="http://purl.org/dc/elements/1.1/"><defs><linearGradient id="XMLID_10_" y2="553.57" gradientUnits="userSpaceOnUse" x2="296" y1="-35.156" x1="296">
		<stop stop-color="#4D4D4D" offset="0"/>
		<stop stop-color="#474747" offset=".2047"/>
		<stop stop-color="#383838" offset=".4568"/>
		<stop stop-color="#1F1F1F" offset=".7324"/>
		<stop offset="1"/>
	</linearGradient><linearGradient id="XMLID_9_" y2="555.1" gradientUnits="userSpaceOnUse" x2="296" y1="-37.112" x1="296">
		<stop stop-color="#5A5A5C" offset="0"/>
		<stop stop-color="#555557" offset=".2122"/>
		<stop stop-color="#464648" offset=".4734"/>
		<stop stop-color="#2F2D30" offset=".7592"/>
		<stop stop-color="#151216" offset="1"/>
	</linearGradient><linearGradient id="linearGradient4476" y2="296" gradientUnits="userSpaceOnUse" x2="534.94" y1="296" x1="57.058"><stop stop-color="#666" offset=".0056"/><stop stop-color="#D1D1D1" offset=".3034"/><stop stop-color="#fff" offset=".4663"/><stop stop-color="#1A1A1A" offset=".8034"/></linearGradient><linearGradient id="linearGradient4478" y2="620.58" xlink:href="#XMLID_6_" gradientUnits="userSpaceOnUse" x2="296.01" y1="-9.6821" x1="296.01"/><linearGradient id="linearGradient4480" y2="-40.278" xlink:href="#XMLID_7_" gradientUnits="userSpaceOnUse" x2="235.43" y1="618.28" x1="354.05"/><linearGradient id="linearGradient4482" y2="48.598" xlink:href="#XMLID_8_" gradientUnits="userSpaceOnUse" x2="297" y1="311.12" x1="297"/></defs>
<linearGradient id="XMLID_6_" y2="620.58" gradientUnits="userSpaceOnUse" x2="296.01" y1="-9.6821" x1="296.01">
	<stop stop-color="#696969" offset="0"/>
	<stop stop-color="#6E6E6E" offset=".1198"/>
	<stop stop-color="#7A7A7A" offset=".2472"/>
	<stop stop-color="#fff" offset=".4775"/>
	<stop stop-color="#EDEDED" offset=".5843"/>
	<stop stop-color="#383838" offset=".6067"/>
	<stop stop-color="#141414" offset=".6461"/>
	<stop stop-color="#828282" offset=".7247"/>
	<stop offset=".8933"/>
</linearGradient>
<linearGradient id="XMLID_7_" y2="-40.278" gradientUnits="userSpaceOnUse" x2="235.43" y1="618.28" x1="354.05">
	<stop stop-color="#666" offset=".0056"/>
	<stop stop-color="#D1D1D1" offset=".1854"/>
	<stop stop-color="#E3E3E3" offset=".2416"/>
	<stop stop-color="#fff" offset=".4326"/>
	<stop stop-color="#1A1A1A" offset=".8034"/>
</linearGradient>
<linearGradient id="XMLID_8_" y2="48.598" gradientUnits="userSpaceOnUse" x2="297" y1="311.12" x1="297">
	<stop stop-color="#525252" offset=".427"/>
	<stop stop-color="#0D0D0D" offset=".7753"/>
</linearGradient>
<circle id="bgColor00" cx="294.62" transform="translate(5.2252 4.173)" cy="291.83" r="263.81"/><g transform="translate(1.2814 1.2814)">
	<path opacity=".05" d="m296 535.41c-132.22 0-239.4-107.19-239.4-239.41-0.001-132.22 107.18-239.41 239.4-239.41 132.21-0.002 239.41 107.19 239.41 239.41s-107.2 239.41-239.41 239.41zm0-535.41c-163.21 0-296 132.79-296 296 0 163.22 132.79 296 296 296 163.22 0 296-132.78 296-296 0-163.21-132.78-296-296-296z"/>
	<path opacity="0.24" fill="url(#linearGradient4478)" d="m296 535.41c-132.22 0-239.4-107.19-239.4-239.41-0.001-132.22 107.18-239.41 239.4-239.41 132.21-0.002 239.41 107.19 239.41 239.41s-107.2 239.41-239.41 239.41zm0-533.71c-162.32 0-294.3 131.97-294.3 294.3-0.002 162.33 131.98 294.3 294.3 294.3 162.33 0 294.3-131.97 294.3-294.3s-131.97-294.3-294.3-294.3z"/>
	<path opacity="0.43" fill="url(#linearGradient4480)" d="m296 535.41c-132.22 0-239.4-107.19-239.4-239.41-0.001-132.22 107.18-239.41 239.4-239.41 132.21 0 239.41 107.19 239.41 239.41s-107.2 239.41-239.41 239.41zm0-532.01c-161.44 0-292.6 131.16-292.6 292.6-0.004 161.45 131.16 292.6 292.6 292.6s292.6-131.15 292.6-292.6c0-161.44-131.16-292.6-292.6-292.6z"/>
	<path opacity="0.62" fill="url(#linearGradient4482)" d="m296 535.42c-132.22 0-239.4-107.2-239.4-239.42-0.001-132.22 107.18-239.41 239.4-239.41 132.21 0 239.41 107.19 239.41 239.41s-107.2 239.42-239.41 239.42zm0-530.32c-160.56 0-290.91 130.34-290.91 290.9 0.004 160.56 130.35 290.91 290.91 290.91 160.55 0 290.9-130.35 290.9-290.91s-130.35-290.9-290.9-290.9z"/>
	<path opacity="0.81" fill="url(#XMLID_9_)" d="m296 535.42c-132.22 0-239.4-107.2-239.4-239.42-0.001-132.22 107.18-239.41 239.4-239.41 132.21 0.001 239.41 107.19 239.41 239.41s-107.2 239.42-239.41 239.42zm0-528.62c-159.67 0-289.21 129.54-289.21 289.2 0.002 159.68 129.54 289.21 289.21 289.21s289.2-129.53 289.2-289.21c0-159.67-129.53-289.2-289.2-289.2z"/>
	<path fill="url(#XMLID_10_)" d="m296 535.42c-132.22 0-239.4-107.2-239.4-239.42-0.001-132.22 107.18-239.41 239.4-239.41 132.21 0.001 239.41 107.19 239.41 239.41s-107.2 239.42-239.41 239.42zm0-526.93c-158.79 0-287.51 128.73-287.51 287.51 0 158.79 128.72 287.51 287.51 287.51 158.78 0 287.5-128.72 287.5-287.51 0-158.78-128.72-287.51-287.5-287.51z"/>
</g><g transform="translate(0 -3.8442)"><rect height="592" width="592" y="0" x="0" fill="none"/><path fill="#fff" d="m296 42.391c-140.06 0-253.6 113.55-253.6 253.62-0.002 140.06 113.54 253.61 253.6 253.61s253.61-113.56 253.61-253.61c0-140.07-113.55-253.62-253.61-253.62zm0 500.78c-136.5 0-247.16-110.66-247.16-247.16-0.001-136.52 110.66-247.17 247.16-247.17 136.5-0.002 247.16 110.65 247.16 247.17 0 136.5-110.66 247.16-247.16 247.16z"/><path opacity="0.54" fill="url(#linearGradient4476)" d="m296 57.054c-131.96 0-238.94 106.99-238.94 238.96-0.002 131.96 106.98 238.94 238.94 238.94 131.97 0 238.94-106.98 238.94-238.94 0-131.97-106.97-238.96-238.94-238.96zm0 474.28c-129.96 0-235.33-105.35-235.33-235.32 0.004-129.97 105.37-235.34 235.33-235.34 129.98 0.005 235.33 105.37 235.33 235.34s-105.36 235.32-235.33 235.32z"/><path fill="url(#linearGradient4478)" d="m296 11.434c-157.16 0-284.56 127.41-284.56 284.57 0.004 157.16 127.4 284.57 284.56 284.57 157.17 0 284.57-127.41 284.57-284.57s-127.4-284.57-284.57-284.57zm0 535.76c-138.72 0-251.17-112.47-251.17-251.19-0.004-138.72 112.45-251.19 251.17-251.19 138.72 0.004 251.19 112.47 251.19 251.19s-112.47 251.19-251.19 251.19z"/><path fill="url(#linearGradient4480)" d="m296 47.082c-137.47 0-248.92 111.44-248.92 248.92 0.004 137.48 111.45 248.92 248.92 248.92 137.48 0 248.92-111.44 248.92-248.92s-111.44-248.92-248.92-248.92zm0 487.65c-131.84 0-238.72-106.88-238.72-238.73-0.002-131.85 106.88-238.73 238.72-238.73 131.85 0.001 238.73 106.88 238.73 238.73s-106.88 238.73-238.73 238.73z"/><path fill="url(#linearGradient4482)" d="m545.92 297.35c0-137.49-111.44-248.93-248.92-248.93-137.48 0.003-248.92 111.44-248.92 248.93-0.003 10.56 3.708-57.41 15.194-55.5 0.059 0.01 0.109 0.03 0.164 0.04 24.514-105.78 119.33-184.62 232.56-184.62 118.56 0.001 216.91 86.42 235.54 199.7 0.63-0.61 1.37-1.04 2.23-1.23 12.57-2.64 12.15 48.45 12.15 41.61z"/><path fill="#8c8c8c" d="m579.5 294c0 156.57-126.92 283.5-283.5 283.5-156.57 0-283.5-126.93-283.5-283.5 0.005-5.63-0.15-11.23-0.424-16.79-0.406 6.22-0.634 12.48-0.634 18.79 0 157.16 127.4 284.57 284.56 284.57 157.17 0 284.57-127.41 284.57-284.57 0-6.04-0.21-12.04-0.59-17.99-0.3 5.3-0.48 10.63-0.48 15.99z"/></g>
</svg>
