<?xml version="1.0" encoding="UTF-8" standalone="no"?>
<svg xmlns:rdf="http://www.w3.org/1999/02/22-rdf-syntax-ns#" xmlns="http://www.w3.org/2000/svg" xml:space="preserve" height="87.3" width="87.3" version="1.1" xmlns:cc="http://creativecommons.org/ns#" xmlns:dc="http://purl.org/dc/elements/1.1/" viewBox="0 0 87.3 87.3">
<path id="bgColor00" fill="#0ca0ea" d="m85.632 81.233c0 2.431-1.971 4.397-4.398 4.397h-75.167c-2.429 0-4.398-1.969-4.398-4.397v-75.165c0-2.429 1.969-4.398 4.398-4.398h75.166c2.429 0 4.397 1.969 4.397 4.398v75.165h0.002z"/>
<linearGradient id="SVGID_3_" x1="306" gradientUnits="userSpaceOnUse" y1="-266.58" gradientTransform="matrix(1 0 0 -1 -262.35 -265.35)" x2="306" y2="-351.87">
	<stop stop-opacity=".5" offset="0"/>
	<stop stop-opacity=".8" offset="1"/>
</linearGradient>
<path opacity=".8" d="m81.233 1.669h-75.166c-2.429 0-4.398 1.969-4.398 4.398v75.166c0 2.431 1.969 4.397 4.398 4.397h75.166c2.429 0 4.397-1.969 4.397-4.397v-75.166c0.002-2.429-1.968-4.398-4.397-4.398zm2.481 77.848c0 2.316-1.879 4.195-4.197 4.195h-71.733c-2.318 0-4.197-1.879-4.197-4.195v-71.734c0-2.318 1.879-4.197 4.197-4.197h71.733c2.318 0 4.197 1.879 4.197 4.197v71.734z" fill="url(#SVGID_3_)"/>
<linearGradient id="SVGID_4_" x1="306" gradientUnits="userSpaceOnUse" y1="-268.51" gradientTransform="matrix(1 0 0 -1 -262.35 -265.35)" x2="306" y2="-349.93">
	<stop stop-opacity=".24" offset="0"/>
	<stop stop-opacity=".9844" offset=".9794"/>
	<stop offset="1"/>
</linearGradient>
<path opacity=".6" d="m79.527 3.574h-71.754c-2.319 0-4.199 1.879-4.199 4.198v71.755c0 2.318 1.88 4.198 4.199 4.198h71.754c2.238 0 4.199-1.88 4.199-4.198v-71.755c0.001-2.318-1.879-4.198-4.199-4.198zm2.969 74.851c0 2.25-1.82 4.07-4.068 4.07h-69.554c-2.248 0-4.07-1.822-4.07-4.07v-69.551c0-2.248 1.822-4.07 4.07-4.07h69.553c2.248 0 4.068 1.822 4.068 4.07v69.551z" fill="url(#SVGID_4_)"/>
</svg>
