<?xml version="1.0" encoding="UTF-8" standalone="no"?>
<!DOCTYPE svg  PUBLIC '-//W3C//DTD SVG 1.1//EN'  'http://www.w3.org/Graphics/SVG/1.1/DTD/svg11.dtd'>
<svg xmlns="http://www.w3.org/2000/svg" xml:space="preserve" height="600px" viewBox="0 0 600 600" width="600px" version="1.1" y="0px" x="0px" xmlns:xlink="http://www.w3.org/1999/xlink" enable-background="new 0 0 600 600">
		<linearGradient id="SVGID_1_" y2="418.5" gradientUnits="userSpaceOnUse" x2="618.95" gradientTransform="translate(-18.5 -118.5)" y1="418.5" x1="18.95">
		<stop stop-color="#A6A6A6" offset="0"/>
		<stop stop-color="#A6A6A6" offset="1"/>
	</linearGradient>
	<circle cy="300" cx="300.45" r="300" fill="url(#SVGID_1_)"/>
		<linearGradient id="SVGID_2_" y2="-103.3" gradientUnits="userSpaceOnUse" x2="425.17" gradientTransform="matrix(1 0 0 -1 -123 494.5)" y1="487.89" x1="420.94">
		<stop stop-color="#fff" offset="0"/>
		<stop stop-color="#E8E8E8" offset=".0052"/>
		<stop stop-color="#BDBDBD" offset=".0164"/>
		<stop stop-color="#9B9B9B" offset=".0272"/>
		<stop stop-color="#828282" offset=".0374"/>
		<stop stop-color="#737373" offset=".0468"/>
		<stop stop-color="#6E6E6E" offset=".0545"/>
		<stop stop-color="#7A7A7A" offset=".2472"/>
		<stop stop-color="#fff" offset=".4775"/>
		<stop stop-color="#EDEDED" offset=".573"/>
		<stop stop-color="#383838" offset=".6067"/>
		<stop stop-color="#141414" offset=".6461"/>
		<stop stop-color="#828282" offset=".7303"/>
		<stop stop-color="#1A1A1A" offset="1"/>
	</linearGradient>
	<path d="m595.64 299.59c0 163.25-132.35 295.6-295.6 295.6s-295.6-132.35-295.6-295.6c0-163.26 132.35-295.6 295.6-295.6 163.25-0.001 295.6 132.34 295.6 295.6z" fill="url(#SVGID_2_)"/>
		<linearGradient id="SVGID_3_" y2="511.43" gradientUnits="userSpaceOnUse" x2="339.44" gradientTransform="matrix(1 0 0 -1 -39.4 484.9)" y1="-106.96" x1="339.44">
		<stop stop-color="#fff" offset="0"/>
		<stop stop-color="#D2D2D2" offset=".086"/>
		<stop stop-color="#9B9B9B" offset=".2009"/>
		<stop stop-color="#737373" offset=".3002"/>
		<stop stop-color="#5B5B5B" offset=".3788"/>
		<stop stop-color="#525252" offset=".427"/>
		<stop stop-color="#0D0D0D" offset=".872"/>
	</linearGradient>
	<path d="m543.5 299.59c0 134.46-109.01 243.46-243.47 243.46s-243.46-109-243.46-243.46 109.01-243.47 243.47-243.47c134.46 0.005 243.46 109.01 243.46 243.47z" fill="url(#SVGID_3_)"/>
		<linearGradient id="SVGID_4_" y2="29.791" gradientUnits="userSpaceOnUse" x2="473.09" gradientTransform="matrix(1 0 0 -1 -81.2 489.7)" y1="392.09" x1="270.94">
		<stop stop-color="#fff" offset="0"/>
		<stop stop-color="#FCFCFC" offset=".2811"/>
		<stop stop-color="#F2F2F2" offset=".4905"/>
		<stop stop-color="#E2E2E2" offset=".6768"/>
		<stop stop-color="#ccc" offset=".8484"/>
		<stop stop-color="#B1B1B1" offset="1"/>
	</linearGradient>
	<ellipse cy="296.03" cx="300.45" rx="207.44" ry="205.1" fill="url(#SVGID_4_)"/>
		<circle cy="422.58" cx="356.25" r="21.793" fill="#7F7F7D"/>
		<circle cy="416.96" cx="300.39" r="56.563" fill="#7F7F7D"/>
		<circle cy="422.58" cx="243.83" r="21.792" fill="#7F7F7D"/>
		<circle cy="416.95" cx="300.39" r="39.839" fill="#5C5C5A"/>
		<circle cy="422.58" cx="356.25" r="15.348" fill="#5C5C5A"/>
		<circle cy="422.58" cx="243.83" r="15.348" fill="#5C5C5A"/>
		<linearGradient id="SVGID_5_" y2="168.62" gradientUnits="userSpaceOnUse" x2="318.54" gradientTransform="translate(-18.5 -118.5)" y1="849.13" x1="318.54">
		<stop stop-color="#525252" offset="0"/>
		<stop stop-color="#0D0D0D" offset=".7091"/>
	</linearGradient>
	<path d="m300.04 87.605c-117.07 0-211.98 94.913-211.98 211.98 0 104.62 75.799 191.54 175.46 208.85 11.863 2.055 17.571 11.641 36.521 11.641 18.438 0 19.718-9.194 29.294-10.517 103.21-14.274 182.69-102.84 182.69-209.98 0-117.06-94.91-211.96-211.98-211.96zm144.34 353.78c-10.644-0.034-90.499-0.313-90.499-0.313s-22.108-23.3-53.844-23.3c-31.737 0-51.407 22.936-51.407 22.936l-90.506-0.31s-79.678-68.862-55.085-184.94c37.66-164.54 197-160.34 197-160.34s161.11-4.2 198.45 161.32c19.95 104.47-43.47 184.98-54.11 184.94z" fill="url(#SVGID_5_)"/>
			<path d="m388.27 377.61c-3.367 4.793-9.979 5.946-14.773 2.584-4.793-3.361-5.951-9.979-2.581-14.769 3.363-4.795 9.971-5.952 14.769-2.589 4.78 3.37 5.94 9.98 2.58 14.78z" fill="#616161"/>
				<rect transform="matrix(.8176 .5758 -.5758 .8176 283.21 -150.82)" height="21.201" width="1.81" y="360.98" x="378.74" fill="#8B8B8B"/>
			<path d="m223.48 364.58c5.25 2.587 7.421 8.949 4.834 14.196-2.586 5.25-8.948 7.417-14.197 4.828-5.252-2.584-7.418-8.941-4.832-14.193 2.59-5.27 8.94-7.44 14.2-4.84z" fill="#616161"/>
				<rect transform="matrix(.4407 -.8976 .8976 .4407 -213.54 405.63)" height="21.21" width="1.807" y="363.57" x="217.84" fill="#8B8B8B"/>
			<linearGradient id="SVGID_6_" y2="132.46" gradientUnits="userSpaceOnUse" x2="316.82" gradientTransform="translate(-18.5 -118.5)" y1="168.92" x1="316.82">
			<stop stop-color="#fff" offset="0"/>
			<stop stop-color="#D5D5D5" offset=".0447"/>
			<stop stop-color="#A9A9A9" offset=".0991"/>
			<stop stop-color="#808080" offset=".1592"/>
			<stop stop-color="#5D5D5D" offset=".2236"/>
			<stop stop-color="#404040" offset=".2935"/>
			<stop stop-color="#292929" offset=".3708"/>
			<stop stop-color="#161616" offset=".4586"/>
			<stop stop-color="#0A0A0A" offset=".5631"/>
			<stop stop-color="#020202" offset=".7006"/>
			<stop offset="1"/>
		</linearGradient>
		<circle cy="30.617" cx="298.32" r="16.152" fill="url(#SVGID_6_)"/>
				<linearGradient id="SVGID_7_" y2="617.04" gradientUnits="userSpaceOnUse" x2="195.35" gradientTransform="matrix(.994 .1098 .1098 -.994 52.632 653.85)" y1="658.12" x1="167.96">
				<stop stop-color="#B1B1B1" offset=".2683"/>
				<stop stop-color="#2E2E2E" offset="1"/>
			</linearGradient>
			<circle cy="30.618" cx="298.32" r="15.352" fill="url(#SVGID_7_)"/>
				<rect transform="matrix(-.8347 .5507 -.5507 -.8347 564.38 -108.21)" height="30.67" width="3.013" y="15.268" x="296.92" fill="#191919"/>
			<linearGradient id="SVGID_8_" y2="535.26" gradientUnits="userSpaceOnUse" x2="549.02" gradientTransform="translate(-18.5 -118.5)" y1="571.71" x1="549.02">
			<stop stop-color="#fff" offset="0"/>
			<stop stop-color="#D5D5D5" offset=".0447"/>
			<stop stop-color="#A9A9A9" offset=".0991"/>
			<stop stop-color="#808080" offset=".1592"/>
			<stop stop-color="#5D5D5D" offset=".2236"/>
			<stop stop-color="#404040" offset=".2935"/>
			<stop stop-color="#292929" offset=".3708"/>
			<stop stop-color="#161616" offset=".4586"/>
			<stop stop-color="#0A0A0A" offset=".5631"/>
			<stop stop-color="#020202" offset=".7006"/>
			<stop offset="1"/>
		</linearGradient>
		<circle cy="433.41" cx="530.52" r="16.152" fill="url(#SVGID_8_)"/>
				<linearGradient id="SVGID_9_" y2="595.6" gradientUnits="userSpaceOnUse" x2="725.09" gradientTransform="matrix(-.1197 .9928 .9928 .1197 -5.511 -341.83)" y1="636.69" x1="697.71">
				<stop stop-color="#B1B1B1" offset=".2683"/>
				<stop stop-color="#2E2E2E" offset="1"/>
			</linearGradient>
			<circle cy="433.41" cx="530.52" r="15.353" fill="url(#SVGID_9_)"/>
				<rect transform="matrix(-.5421 -.8403 .8403 -.5421 453.91 1114.4)" height="30.664" width="3.012" y="418.17" x="529.08" fill="#191919"/>
			<linearGradient id="SVGID_10_" y2="534.31" gradientUnits="userSpaceOnUse" x2="88.963" gradientTransform="translate(-18.5 -118.5)" y1="570.76" x1="88.963">
			<stop stop-color="#fff" offset="0"/>
			<stop stop-color="#D5D5D5" offset=".0447"/>
			<stop stop-color="#A9A9A9" offset=".0991"/>
			<stop stop-color="#808080" offset=".1592"/>
			<stop stop-color="#5D5D5D" offset=".2236"/>
			<stop stop-color="#404040" offset=".2935"/>
			<stop stop-color="#292929" offset=".3708"/>
			<stop stop-color="#161616" offset=".4586"/>
			<stop stop-color="#0A0A0A" offset=".5631"/>
			<stop stop-color="#020202" offset=".7006"/>
			<stop offset="1"/>
		</linearGradient>
		<circle cy="432.46" cx="70.463" r="16.151" fill="url(#SVGID_10_)"/>
				<linearGradient id="SVGID_11_" y2="5.1865" gradientUnits="userSpaceOnUse" x2="610.58" gradientTransform="matrix(.3835 .9235 .9235 -.3835 -188.16 -100.1)" y1="46.27" x1="583.19">
				<stop stop-color="#B1B1B1" offset=".2683"/>
				<stop stop-color="#2E2E2E" offset="1"/>
			</linearGradient>
			<circle cy="432.46" cx="70.382" r="15.352" fill="url(#SVGID_11_)"/>
				<rect transform="matrix(-.8855 -.4646 .4646 -.8855 -68.13 848.35)" height="30.666" width="3.012" y="417.24" x="68.957" fill="#191919"/>
		<linearGradient id="SVGID_12_" y2="-26.674" gradientUnits="userSpaceOnUse" x2="337.85" gradientTransform="matrix(1 0 0 -1 -39.4 484.9)" y1="44.788" x1="337.85">
		<stop stop-color="#EDEDED" offset=".2182"/>
		<stop stop-color="#C4C4C4" offset=".3072"/>
		<stop stop-color="#696969" offset=".5152"/>
		<stop stop-color="#141414" offset="1"/>
	</linearGradient>
	<circle cy="483.87" cx="298.45" r="27.536" fill="url(#SVGID_12_)"/>
		<radialGradient id="SVGID_13_" gradientUnits="userSpaceOnUse" cy="196.14" cx="423.5" gradientTransform="matrix(1.0035 0 0 -.9875 -124.53 492.27)" r="204.13">
		<stop stop-color="#fff" stop-opacity="0" offset="0"/>
		<stop stop-color="#fff" stop-opacity="0" offset=".8"/>
		<stop stop-color="#333" stop-opacity=".5" offset="1"/>
	</radialGradient>
	<path d="m353.14 436.85s-21.748-22.667-52.974-22.667c-31.217 0-50.57 22.321-50.57 22.321l-89.029-0.304s-78.386-66.994-54.192-179.93c37.049-160.09 193.79-156 193.79-156s158.48-4.083 195.22 156.96c19.624 101.63-42.755 179.97-53.223 179.93-10.47-0.04-89.03-0.31-89.03-0.31" fill="url(#SVGID_13_)"/>
</svg>
