<?xml version="1.0" encoding="UTF-8" standalone="no"?>
<svg xmlns:rdf="http://www.w3.org/1999/02/22-rdf-syntax-ns#" xmlns="http://www.w3.org/2000/svg" xml:space="preserve" overflow="visible" height="36.091" viewBox="0 0 26.365 36.091" width="26.365" version="1.1" enable-background="new 0 0 26.365 36.091" xmlns:cc="http://creativecommons.org/ns#" xmlns:dc="http://purl.org/dc/elements/1.1/">
<path id="bgColor00" d="m7.751 26.212c0-1.185 0.955-2.144 2.132-2.144 1.176 0 2.138 0.959 2.138 2.144 0 1.173-0.962 2.133-2.138 2.133s-2.132-0.959-2.132-2.133zm2.955-9.856c-0.542-0.048-1.098-0.048-1.648 0l-0.979 2.672c-0.705 0.168-1.381 0.457-1.997 0.822l-2.576-1.194c-0.422 0.361-0.812 0.744-1.169 1.174l1.192 2.568c-0.38 0.634-0.656 1.31-0.831 1.997l-2.66 0.99c-0.052 0.545-0.052 1.101 0 1.65l2.66 0.97c0.175 0.707 0.461 1.389 0.831 1.997l-1.192 2.583c0.357 0.43 0.747 0.817 1.168 1.169l2.571-1.196c0.631 0.379 1.31 0.657 1.997 0.829l0.985 2.672c0.55 0.043 1.106 0.043 1.648 0l0.976-2.667c0.717-0.177 1.394-0.466 1.996-0.834l2.582 1.196c0.429-0.352 0.82-0.739 1.173-1.169l-1.195-2.573c0.372-0.634 0.654-1.31 0.83-1.997l2.671-0.98c0.041-0.55 0.041-1.105 0-1.65l-2.671-0.974c-0.176-0.713-0.462-1.389-0.83-2.002l1.195-2.578c-0.354-0.43-0.745-0.813-1.173-1.174l-2.576 1.194c-0.626-0.377-1.297-0.654-1.992-0.822l-0.986-2.673zm4.269-6.127c-0.451-1.091 0.063-2.332 1.156-2.787 1.09-0.451 2.339 0.063 2.79 1.157 0.453 1.085-0.06 2.333-1.155 2.789-1.088 0.445-2.341-0.069-2.791-1.159zm-1.033-10.229c-0.529 0.173-1.03 0.383-1.528 0.628l0.118 2.835c-0.587 0.435-1.1 0.959-1.527 1.531l-2.837-0.116c-0.257 0.494-0.467 1.002-0.632 1.531l2.088 1.923c-0.115 0.724-0.115 1.451 0 2.159l-2.088 1.929c0.165 0.523 0.375 1.038 0.632 1.529l2.832-0.125c0.433 0.592 0.958 1.106 1.527 1.53l-0.113 2.84c0.498 0.252 0.999 0.462 1.528 0.64l1.918-2.096c0.729 0.109 1.459 0.105 2.165 0l1.928 2.096c0.532-0.178 1.033-0.387 1.527-0.64l-0.123-2.829c0.592-0.44 1.112-0.958 1.533-1.535l2.838 0.12c0.254-0.492 0.464-1.006 0.637-1.529l-2.094-1.929c0.111-0.718 0.106-1.446 0-2.154l2.094-1.929c-0.172-0.529-0.382-1.037-0.637-1.53l-2.838 0.12c-0.427-0.592-0.951-1.106-1.523-1.535l0.113-2.835c-0.494-0.246-0.995-0.456-1.527-0.629l-1.924 2.091c-0.72-0.115-1.451-0.115-2.164 0l-1.923-2.091z"/>
</svg>
