<?xml version="1.0" encoding="UTF-8" standalone="no"?>
<svg xmlns:rdf="http://www.w3.org/1999/02/22-rdf-syntax-ns#" xmlns="http://www.w3.org/2000/svg" xml:space="preserve" overflow="visible" height="46.224" viewBox="0 0 32.729 46.224" width="32.729" version="1.1" enable-background="new 0 0 32.729 46.224" xmlns:cc="http://creativecommons.org/ns#" xmlns:dc="http://purl.org/dc/elements/1.1/">
<path id="bgColor00" d="m15.939 13.274c0.891-0.047 0.939-1.027 1.168-1.682 1.078-3.464 0.141-7.106 0.654-10.806 0.045 6.828 3.598 13.419 0.188 19.782-0.744 1.494-1.963 2.805-2.146 4.491-1.875-1.828-1.266-4.962-2.201-7.299-3.836-4.915-2.997-12.341-0.983-17.76-1.447 4.857 0.098 9.721 3.32 13.274zm-0.324-11.314c0.51 2.946-0.938 5.472-0.656 8.458 0.328 0.372 0.328 1.132 0.98 1.027 1.125-3.075 0.047-6.398-0.324-9.485zm6.821 0.332c-1.396 3.41-0.469 7.383-0.512 11.119 0 4.916-2.244 9.684 0 14.119 2.383-2.569 3.033-6.033 2.479-9.628-0.139-5.419-3.507-10.098-1.967-15.61zm-17.625 5.512c0.52 2.012 0.52 4.627 0 6.638-0.092 3.459-2.898 8.045 0.52 10.795 3.13-5.323 0.509-12.01-0.52-17.433zm4.818 2.289c0.563 2.851-0.889 4.869-1.307 7.342-1.082 3.04-0.422 6.823-2.521 9.448-2.764-0.891-4.023-3.878-5.291-6.137 1.268 2.065 1.217 4.68 1.639 7.117 0.094 4.345 5.141 6.823 4.023 11.445-1.5-2.793-2.104-6.587-5.662-7.938 0.891 0.88 1.082 2.289 1.174 3.316-0.661 0.09-1.174-0.141-1.684-0.324 2.053 0.786 3.883 2.798 4.672 4.947 2.1 3.463 5.658 4.962 9.441 5.193l-3.508-1.163c-2.801-1.594-3.549-4.816-3.131-7.809 0.283 0.236 0.098 0.644 0.143 0.985 0.283 1.955 1.824 4.156 3.832 4.67-0.463-0.939-1.119-1.772-1.957-2.526-4.074-5.472-0.328-12.295 0.793-17.913h0.18c1.033 3.931-0.135 8.794 1.65 12.441 0.373 0.802 0.602 1.918 1.67 2.154 0.418-1.871 1.27-3.553 1.174-5.659 2.477 3.133-0.697 8.003 2.477 10.801 1.078-1.264 2.291-2.426 2.666-3.968 0.424 0.928-0.09 1.872-0.191 2.793-0.23 1.084-1.441 1.74-1.486 2.861 1.115-0.235 2.326-0.194 3.316-0.66 0.227 1.084-0.844 2.155-1.83 2.809 3.752 0.142 6.971-1.215 9.488-3.647-0.789 0.053-1.443 0.934-2.148 0.655 4.07-2.573 4.541-7.106 4.119-11.455-2.615-5.377 0.838-10.381 1.359-15.617-0.24 1.074-0.188 2.196-0.662 3.181-3.971 4.575-3.83 10.848-7.008 15.752 0.467-2.615-2.107-4.674-1.5-6.634-1.311 1.122-1.217 2.851-2.148 4.16-0.514-0.188-0.141-0.754-0.475-1.032 0.385-4.255-2.512-7.808-1.025-11.922-0.514 3.417-3.506 5.754-3.785 9.302-3.408-1.914-2.615-6.174-3.691-9.302-0.56-2.708-2.9-4.674-2.806-7.666zm15.801 5.66c0.379 4.254-0.697 7.849-1.027 11.776 0.424 0.938 1.258 1.691 1.168 2.854 3.784-4.626-0.839-9.443-0.141-14.63zm-14.825 29.403l1.695 0.662c3.639 0.277 8.504 1.026 11.629-0.662h-13.324z" stroke-opacity="0" stroke="#1A161B" stroke-linecap="square" stroke-miterlimit="2" stroke-width="0"/>
</svg>
