<?xml version="1.0" encoding="UTF-8" standalone="no"?>
<svg xmlns:rdf="http://www.w3.org/1999/02/22-rdf-syntax-ns#" xmlns="http://www.w3.org/2000/svg" xml:space="preserve" overflow="visible" height="43.344" viewBox="0 0 45.252 43.344" width="45.252" version="1.1" enable-background="new 0 0 45.252 43.344" xmlns:cc="http://creativecommons.org/ns#" xmlns:dc="http://purl.org/dc/elements/1.1/">
<path id="bgColor00" d="m44.246 34.069c-0.94-0.99-2.063-1.52-3.425-2.041-0.075-0.029-0.157-0.053-0.235-0.08-5.472-4.734-2.906-8.531-2.906-13.371 0-4.797-4.779-12.11-11.226-14.192 0.023-0.17 0.04-0.342 0.04-0.518 0-2.135-1.732-3.867-3.866-3.867s-3.866 1.732-3.866 3.867c0 0.238 0.024 0.471 0.066 0.697-6.166 2.268-10.678 9.206-10.678 14.013 0 4.801 2.279 8.588-2.675 13.104-0.995 0.305-1.886 0.65-2.666 1.059-0.663 0.357-1.266 0.754-1.8 1.33-0.52 0.559-1.009 1.421-1.009 2.45 0 1.027 0.489 1.891 1.01 2.449 0.94 0.99 2.063 1.521 3.424 2.043 2.042 0.748 4.673 1.307 7.772 1.709 3.094 0.398 6.642 0.623 10.422 0.623 5.762-0.002 10.97-0.516 14.888-1.389 1.967-0.443 3.601-0.961 4.929-1.656 0.666-0.355 1.266-0.752 1.802-1.33 0.52-0.559 1.01-1.422 1.006-2.449 0.003-1.029-0.487-1.891-1.007-2.451m-4.954 2.666c-1.518 0.57-3.906 1.111-6.784 1.479-2.88 0.375-6.266 0.59-9.88 0.59-5.479 0.002-10.448-0.504-13.897-1.279-1.391-0.308-2.537-0.669-3.311-1.005 0.164-0.074 0.346-0.146 0.542-0.217 1.521-0.568 3.908-1.107 6.786-1.479 1.918-0.248 4.066-0.424 6.35-0.516 0.354 1.625 1.801 2.842 3.53 2.842 1.73 0 3.176-1.217 3.53-2.842 4.06 0.162 7.676 0.602 10.368 1.207 1.388 0.307 2.533 0.67 3.308 1.006-0.166 0.073-0.344 0.144-0.542 0.214"/>
</svg>
