<?xml version="1.0" encoding="UTF-8" standalone="no"?>
<svg xmlns:rdf="http://www.w3.org/1999/02/22-rdf-syntax-ns#" xmlns="http://www.w3.org/2000/svg" xml:space="preserve" overflow="visible" height="51.402" viewBox="0 0 51.402 51.402" width="51.402" version="1.1" enable-background="new 0 0 51.402 51.402" xmlns:cc="http://creativecommons.org/ns#" xmlns:dc="http://purl.org/dc/elements/1.1/">
<path id="bgColor00" d="m2.622 0l-2.622 2.621 48.778 48.781 2.624-2.621-48.78-48.781zm45.607 41.344c0.062-0.254 0.1-0.516 0.1-0.797 0-1.023-0.488-1.891-1.01-2.449-0.938-0.988-2.061-1.52-3.424-2.039-0.074-0.027-0.156-0.055-0.234-0.082-5.472-4.734-2.906-8.527-2.906-13.371 0-4.797-4.78-12.109-11.226-14.191 0.023-0.168 0.04-0.34 0.04-0.52 0-2.133-1.732-3.863-3.866-3.863-2.136 0-3.868 1.73-3.868 3.863 0 0.242 0.026 0.473 0.068 0.699-1.473 0.543-2.849 1.352-4.092 2.332l30.418 30.418zm-22.527 1.488c-5.48 0.004-10.45-0.504-13.9-1.277-1.39-0.309-2.534-0.672-3.308-1.008 0.164-0.07 0.344-0.145 0.542-0.215 1.518-0.566 3.908-1.109 6.784-1.477 1.92-0.246 4.065-0.426 6.352-0.516 0.354 1.621 1.8 2.84 3.53 2.84 1.729 0 3.174-1.219 3.528-2.844 0.802 0.035 1.586 0.078 2.348 0.129l-19.608-19.609c-0.483 1.313-0.748 2.594-0.748 3.75 0 4.801 2.28 8.59-2.671 13.102-0.999 0.309-1.889 0.652-2.666 1.063-0.665 0.355-1.267 0.754-1.803 1.328-0.52 0.559-1.008 1.426-1.006 2.449-0.002 1.031 0.487 1.894 1.006 2.453 0.94 0.988 2.063 1.52 3.426 2.043 2.043 0.746 4.672 1.309 7.771 1.707 3.096 0.398 6.642 0.621 10.424 0.621 5.174 0 9.902-0.414 13.647-1.133l-3.97-3.973c-2.838 0.36-6.148 0.567-9.678 0.567"/>
</svg>
