<?xml version="1.0" encoding="UTF-8" standalone="no"?>
<svg xmlns:rdf="http://www.w3.org/1999/02/22-rdf-syntax-ns#" xmlns="http://www.w3.org/2000/svg" xml:space="preserve" overflow="visible" height="47.36" viewBox="0 0 51.268 47.36" width="51.268" version="1.1" enable-background="new 0 0 51.268 47.36" xmlns:cc="http://creativecommons.org/ns#" xmlns:dc="http://purl.org/dc/elements/1.1/">
<path id="bgColor00" d="m25.515 5.649l-24.078 41.711 48.16-0.005-24.082-41.706zm0 6.536l18.423 31.906h-36.842l18.419-31.906zm0 4.898l-14.177 24.561 28.357-0.004-14.18-24.557zm0 6.535l8.521 14.756h-17.038l8.517-14.756zm22.76-23.618c1.958 3.936 2.992 8.389 2.992 12.87 0 4.485-1.034 8.934-2.992 12.874l-2.193-1.092c1.791-3.601 2.734-7.675 2.734-11.782 0-4.108-0.943-8.183-2.734-11.783l2.193-1.087zm-7.622 21.535c1.379-2.638 2.106-5.635 2.106-8.665 0-3.031-0.728-6.023-2.106-8.666l2.896-1.509c1.618 3.103 2.476 6.622 2.476 10.175 0 3.552-0.857 7.071-2.476 10.179l-2.896-1.514zm-3.955-8.665c0-1.925-0.503-3.826-1.46-5.492l3.188-1.829c1.273 2.222 1.949 4.755 1.949 7.321 0 2.565-0.676 5.099-1.949 7.32l-3.188-1.829c0.957-1.666 1.46-3.567 1.46-5.491zm-31.508-11.783c-1.791 3.601-2.739 7.675-2.739 11.783 0 4.107 0.948 8.182 2.739 11.782l-2.198 1.092c-1.953-3.94-2.992-8.389-2.992-12.874 0-4.481 1.039-8.934 2.992-12.87l2.198 1.087zm2.533 21.962c-1.623-3.108-2.476-6.627-2.476-10.179 0-3.553 0.853-7.072 2.476-10.175l2.896 1.509c-1.379 2.643-2.106 5.635-2.106 8.666 0 3.03 0.728 6.027 2.106 8.665l-2.896 1.514zm8.311-4.688l-3.188 1.829c-1.278-2.222-1.948-4.755-1.948-7.32 0-2.566 0.67-5.1 1.948-7.321l3.188 1.829c-0.957 1.666-1.465 3.567-1.465 5.492 0 1.924 0.508 3.825 1.465 5.491zh-0.005 0.005zm-0.005 0zm0.005 0h-0.005 0.005z"/>
</svg>
