<?xml version="1.0" encoding="UTF-8" standalone="no"?>
<svg xmlns:rdf="http://www.w3.org/1999/02/22-rdf-syntax-ns#" xmlns="http://www.w3.org/2000/svg" xml:space="preserve" height="38.443px" viewBox="0 0 28.888 38.443" width="28.888px" version="1.1" enable-background="new 0 0 28.888 38.443" y="0px" x="0px" xmlns:cc="http://creativecommons.org/ns#" xmlns:dc="http://purl.org/dc/elements/1.1/">
<path id="bgColor00" d="m26.961 13.171h-1.296v-5.592c0-4.179-3.552-7.579-7.917-7.579h-6.906c-4.363 0-7.918 3.4-7.918 7.579v5.592h-0.998c-1.063 0-1.926 0.757-1.926 1.685v21.901c0 0.932 0.863 1.686 1.926 1.686h25.035c1.064 0 1.927-0.754 1.927-1.686v-21.901c0-0.928-0.863-1.685-1.927-1.685zm-16.119-8.622h6.906c1.475 0 2.714 1.387 2.714 3.03v5.592h-12.338v-5.592c0-1.643 1.243-3.03 2.718-3.03zm6.954 30.678h-6.697l1.484-9.527c-1.513-0.485-2.013-1.788-2.013-3.316 0-1.938 1.737-3.512 3.874-3.512 2.143 0 3.874 1.574 3.874 3.512 0 1.528-0.793 2.831-2.3 3.316l1.778 9.527z"/>
</svg>
