<?xml version="1.0" encoding="UTF-8" standalone="no"?>
<svg xmlns:rdf="http://www.w3.org/1999/02/22-rdf-syntax-ns#" xmlns="http://www.w3.org/2000/svg" xml:space="preserve" height="38.44px" viewBox="0 0 41.845 38.44" width="41.845px" version="1.1" enable-background="new 0 0 41.845 38.44" y="0px" x="0px" xmlns:cc="http://creativecommons.org/ns#" xmlns:dc="http://purl.org/dc/elements/1.1/">
<path id="bgColor00" d="m33.928 0h-6.906c-4.362 0-7.914 3.397-7.914 7.579v5.592h-17.184c-1.064 0-1.924 0.754-1.924 1.685v21.902c0 0.931 0.86 1.682 1.924 1.682h25.034c1.063 0 1.923-0.751 1.923-1.682v-21.902c0-0.931-0.859-1.686-1.923-1.686h-2.652v-5.591c0-1.646 1.243-3.03 2.716-3.03h6.906c1.475 0 2.718 1.384 2.718 3.03v6.041h5.199v-6.041c0-4.182-3.55-7.579-7.917-7.579zm-16.139 35.224h-6.694l1.485-9.528c-1.51-0.482-2.012-1.784-2.012-3.312 0-1.938 1.735-3.516 3.872-3.516 2.144 0 3.875 1.578 3.875 3.516 0 1.528-0.791 2.83-2.3 3.312l1.774 9.528z"/>
</svg>
