<?xml version="1.0" encoding="UTF-8" standalone="no"?>
<svg xmlns:rdf="http://www.w3.org/1999/02/22-rdf-syntax-ns#" xmlns="http://www.w3.org/2000/svg" xml:space="preserve" height="54.48px" viewBox="0 0 56.195 54.48" width="56.195px" version="1.1" enable-background="new 0 0 56.195 54.48" y="0px" x="0px" xmlns:cc="http://creativecommons.org/ns#" xmlns:dc="http://purl.org/dc/elements/1.1/">
<path id="bgColor00" d="m22.951 33.813l0.92 1.313c-0.869 0.168-1.763 0.262-2.679 0.262-7.735 0-14-6.27-14-14.004 0-7.73 6.265-14 14-14 5.378 0 10.039 3.035 12.386 7.48h-1.662c-2.205-3.617-6.176-6.039-10.724-6.039-6.938 0-12.563 5.621-12.563 12.559 0 6.941 5.625 12.566 12.563 12.566 0.601-0.001 1.179-0.055 1.759-0.137zm-1.474-27.676c0.428 0 0.773-0.344 0.773-0.77v-4.601c0-0.422-0.346-0.766-0.773-0.766-0.422 0-0.762 0.344-0.762 0.766v4.602c0 0.425 0.34 0.769 0.762 0.769zm11.787 4.672l3.227-3.281c0.299-0.305 0.295-0.785-0.006-1.086-0.305-0.293-0.787-0.293-1.085 0.012l-3.23 3.276c-0.299 0.305-0.295 0.793 0.01 1.086 0.301 0.297 0.783 0.297 1.084-0.007zm-23.811-0.551c0.289 0.309 0.771 0.324 1.082 0.035 0.309-0.289 0.324-0.773 0.035-1.082l-3.146-3.363c-0.289-0.305-0.777-0.32-1.088-0.031-0.305 0.288-0.324 0.773-0.035 1.081l3.152 3.36zm-3.32 10.551c0-0.422-0.34-0.766-0.768-0.766h-4.6c-0.425 0-0.765 0.344-0.765 0.766 0 0.426 0.34 0.77 0.766 0.77h4.6c0.427-0.001 0.767-0.345 0.767-0.77zm2.851 10.847l-3.172 3.336c-0.288 0.305-0.279 0.793 0.031 1.086 0.306 0.289 0.793 0.277 1.082-0.031l3.178-3.336c0.289-0.305 0.273-0.789-0.031-1.082-0.31-0.293-0.793-0.277-1.088 0.027zm11.731 4.785c-0.428 0-0.768 0.344-0.768 0.77v4.602c0 0.422 0.34 0.766 0.768 0.766 0.422 0 0.762-0.344 0.762-0.766v-4.602c0-0.426-0.34-0.77-0.762-0.77zm16.613 6.254c-0.188-0.277-0.574-0.332-0.863-0.129-0.289 0.199-0.365 0.586-0.178 0.855l2.059 2.949c0.188 0.27 0.574 0.328 0.863 0.125s0.371-0.586 0.178-0.855l-2.059-2.945zm3.33 5.176c-0.193-0.273-0.58-0.328-0.869-0.125-0.291 0.199-0.367 0.582-0.178 0.852l2.057 2.953c0.19 0.27 0.576 0.328 0.871 0.125 0.283-0.203 0.365-0.586 0.178-0.859l-2.059-2.946zm11.008 0.645l-2.058-2.945c-0.194-0.273-0.581-0.332-0.864-0.129-0.291 0.203-0.371 0.586-0.184 0.855l2.059 2.949c0.188 0.273 0.58 0.328 0.869 0.129 0.286-0.203 0.366-0.586 0.178-0.859zm1.199-4.993c-0.188-0.27-0.574-0.328-0.863-0.129-0.291 0.203-0.371 0.586-0.178 0.859l2.059 2.949c0.188 0.27 0.574 0.328 0.863 0.121 0.289-0.199 0.365-0.586 0.178-0.855l-2.059-2.945zm0 7.032c-0.188-0.273-0.574-0.328-0.863-0.125-0.291 0.203-0.371 0.582-0.178 0.855l2.059 2.949c0.188 0.27 0.574 0.328 0.863 0.125 0.289-0.199 0.365-0.586 0.178-0.855l-2.059-2.949zm-11.632-10.231c-0.19-0.27-0.581-0.328-0.87-0.125s-0.367 0.582-0.178 0.859l2.059 2.945c0.188 0.27 0.578 0.328 0.869 0.129 0.283-0.203 0.365-0.59 0.178-0.859l-2.058-2.949zm7.511-1.914c-0.291 0.203-0.371 0.582-0.184 0.855l2.059 2.949c0.188 0.27 0.58 0.328 0.869 0.125 0.286-0.203 0.365-0.586 0.178-0.855l-2.058-2.949c-0.194-0.273-0.581-0.328-0.864-0.125zm-2.654 1.848c-0.188-0.27-0.578-0.324-0.867-0.121-0.285 0.199-0.367 0.586-0.18 0.855l2.059 2.945c0.188 0.277 0.58 0.328 0.869 0.129 0.285-0.203 0.365-0.586 0.179-0.855l-2.06-2.953zm-5.188-0.461c2.432 0 4.564-1.165 5.781-2.915 0.789 0.615 1.769 0.997 2.848 0.997 2.566 0 4.65-2.082 4.65-4.648 0-0.326-0.035-0.644-0.099-0.95 1.294-1.186 2.112-2.897 2.112-4.808 0-3.574-2.852-6.469-6.375-6.469-0.283 0-0.56 0.025-0.833 0.062-0.563-2.437-3.258-4.284-6.503-4.284-1.63 0-3.121 0.468-4.274 1.239-1.114-1.219-2.843-2.005-4.79-2.005-3.079 0-5.616 1.963-6.024 4.509-0.351-0.061-0.708-0.099-1.076-0.099-3.521 0-6.373 2.898-6.373 6.473 0 2.848 1.808 5.256 4.32 6.124 0.728 3.006 3.429 5.239 6.658 5.239 0.594 0 1.168-0.083 1.718-0.226 0.017 0.049 0.029 0.1 0.059 0.144l2.064 2.949c0.188 0.27 0.574 0.324 0.863 0.125 0.291-0.203 0.365-0.59 0.178-0.859l-1.955-2.796c0.441-0.209 0.856-0.462 1.239-0.756 1.216 1.771 3.361 2.954 5.812 2.954z"/>
</svg>
