<?xml version="1.0" encoding="UTF-8" standalone="no"?>
<svg xmlns:rdf="http://www.w3.org/1999/02/22-rdf-syntax-ns#" xmlns="http://www.w3.org/2000/svg" xml:space="preserve" height="44.751" viewBox="0 0 49.712228 44.750999" width="49.712" version="1.1" enable-background="new 0 0 844.287 761.88" y="0px" x="0px" xmlns:cc="http://creativecommons.org/ns#" xmlns:dc="http://purl.org/dc/elements/1.1/">
<rect id="bgColor00" transform="rotate(209.99)" height="2.972" width="12.248" y="-6.2888" x="-59.313"/>
<rect id="bgColor01" transform="rotate(240.01)" height="2.974" width="12.248" y="10.154" x="-57.522"/>
<polygon id="bgColor02" points="627.72 459.01 621.59 469.61 624.16 471.1 630.29 460.49" transform="translate(-611.94 -426.35)"/>
<rect id="bgColor03" transform="rotate(-29.993)" height="2.973" width="12.248" y="28.193" x="-16.273"/>
<path id="bgColor04" d="m31.214 9.884c-0.535-0.318-0.68-0.807-0.68-1.369v-7.7c-1.795-0.532-3.695-0.815-5.666-0.815-1.965 0-3.865 0.283-5.66 0.815v7.7c0 0.562-0.148 1.051-0.684 1.369-3.379 1.991-5.51 5.804-5.51 10.01 0 6.537 5.316 11.853 11.854 11.853s11.859-5.316 11.859-11.853c0-4.206-2.132-8.019-5.513-10.01m-3.656-1.369c0 2.319 1.346 3.456 2.148 3.931 2.5 1.469 4.045 4.323 4.045 7.448 0 4.898-3.984 8.881-8.883 8.881s-8.881-3.983-8.881-8.881c0-3.125 1.551-5.979 4.049-7.448 0.801-0.475 2.135-1.612 2.135-3.931v-3.081c0.877-0.161 1.773-0.257 2.697-0.257 0.922 0 1.818 0.096 2.689 0.257v3.081z"/>
</svg>
