<?xml version="1.0" encoding="UTF-8" standalone="no"?>
<svg xmlns:rdf="http://www.w3.org/1999/02/22-rdf-syntax-ns#" xmlns="http://www.w3.org/2000/svg" xml:space="preserve" height="54.903" viewBox="0 0 54.91 54.903" width="54.91" version="1.1" enable-background="new 0 0 100 100" y="0px" x="0px" xmlns:cc="http://creativecommons.org/ns#" xmlns:dc="http://purl.org/dc/elements/1.1/">
<path id="bgColor00" d="m27.455 12.681c-8.155 0-14.766 6.61-14.766 14.768 0 8.155 6.61 14.764 14.766 14.766 8.155-0.002 14.766-6.61 14.766-14.766 0-8.157-6.611-14.768-14.766-14.768zm0 26.535c-6.497-0.014-11.755-5.27-11.767-11.767 0.012-6.498 5.27-11.754 11.767-11.768 6.497 0.014 11.755 5.27 11.767 11.768-0.012 6.497-5.27 11.753-11.767 11.767zm-11.062-35.575l0.039 0.039c0.008 0.007 0.016 0.015 0.021 0.021 0.029 0.028 0.056 0.054 0.08 0.077 0.006 0.005 0.01 0.01 0.016 0.015 0.023 0.023 0.047 0.045 0.067 0.065l0.003 0.003 0.021 0.021c0.008 0.008 0.016 0.015 0.021 0.022 0.016 0.015 0.028 0.029 0.039 0.042 0.016 0.018 0.026 0.032 0.033 0.046 0.007 0.012 0.01 0.021 0.012 0.03 0.026 0.048 0.05 0.094 0.07 0.137 0 0.002 0.002 0.004 0.002 0.005 0.004 0.007 0.007 0.014 0.01 0.021 0.1 0.222 0.129 0.401 0.131 0.602 0.004 0.146-0.02 0.307-0.063 0.481-0.1 0.39-0.302 0.849-0.533 1.355-0.016 0.034-0.03 0.069-0.045 0.104-0.263 0.625-0.398 1.279-0.408 1.915v0.081c0 0.024 0 0.048 0.001 0.071 0.03 1.504 0.661 2.755 1.383 4.02l2.599-1.497c-0.658-1.131-0.975-1.943-0.984-2.537 0-0.02 0-0.038 0.001-0.057 0.001-0.195 0.025-0.383 0.089-0.592 0.028-0.096 0.065-0.194 0.112-0.301 0.235-0.566 0.76-1.509 0.839-2.771 0.002-0.01 0.002-0.02 0.002-0.029 0.004-0.056 0.006-0.11 0.008-0.167 0-0.025 0-0.051 0.001-0.077 0.005-0.716-0.181-1.516-0.616-2.263-0.26-0.408-0.502-0.687-0.701-0.89-0.002-0.003-0.004-0.005-0.007-0.008-0.018-0.018-0.034-0.035-0.052-0.052-0.041-0.041-0.08-0.079-0.117-0.114-0.001 0-0.001 0-0.002-0.001-0.011-0.01-0.021-0.021-0.031-0.03-0.002-0.002-0.004-0.004-0.007-0.006-0.009-0.008-0.017-0.016-0.025-0.023-0.003-0.004-0.007-0.008-0.011-0.011-0.036-0.034-0.068-0.065-0.098-0.095-0.036-0.035-0.066-0.066-0.091-0.097s-0.044-0.059-0.057-0.087l-2.469 1.703-0.002-0.002c0.287 0.382 0.53 0.642 0.713 0.823 0.002 0.006 0.004 0.007 0.006 0.008zm12.579 5.965c0.001-0.933 0.072-1.653 0.232-2.148 0.174-0.517 0.366-0.815 0.837-1.176 0.394-0.292 1.069-0.72 1.689-1.422 0.617-0.682 1.157-1.734 1.161-2.992v-0.06c-0.041-1.06-0.332-1.539-0.329-1.786 0-0.008 0.001-0.016 0.001-0.022l-2.988 0.256c0.119 0.931 0.319 1.364 0.322 1.515 0 0.016-0.002 0.028-0.006 0.038-0.012 0.507-0.143 0.74-0.414 1.073-0.276 0.319-0.723 0.63-1.209 0.982-0.972 0.697-1.619 1.681-1.927 2.694-0.317 1.02-0.367 2.049-0.369 3.139h3v-0.091zm11.305 0.805c0.487-0.059 1.284-0.091 2.175-0.388 0.887-0.287 1.9-0.944 2.531-2.063 0.512-0.978 0.477-1.544 0.609-1.728l-2.718-1.267c-0.401 0.965-0.403 1.438-0.489 1.493-0.266 0.435-0.494 0.573-0.896 0.723-0.398 0.14-0.94 0.186-1.541 0.246-2.484 0.261-3.884 2.08-4.902 3.905l2.598 1.499c1.04-1.745 1.564-2.289 2.633-2.42zm1.82 6.875c-0.001 0.002-0.001 0.002-0.003 0.003l1.506 2.595c1.158-0.678 1.99-0.992 2.588-0.979 0.107 0 0.212 0.007 0.318 0.022 0.178 0.028 0.365 0.083 0.58 0.177 0.125 0.052 0.27 0.118 0.432 0.19 0.619 0.279 1.499 0.648 2.607 0.657h0.025c0.588 0 1.232-0.127 1.857-0.418 0.127-0.059 0.253-0.124 0.377-0.196 0.447-0.282 0.739-0.546 0.947-0.755 0.019-0.019 0.036-0.036 0.053-0.054 0.015-0.015 0.029-0.029 0.042-0.043 0-0.001 0.001-0.001 0.001-0.001 0.018-0.02 0.035-0.038 0.053-0.056 0.066-0.07 0.122-0.13 0.172-0.178 0.051-0.049 0.096-0.084 0.139-0.104l-1.728-2.45-0.003-0.002c-0.813 0.626-1.056 1.026-1.172 1.043-0.303 0.17-0.519 0.211-0.764 0.215-0.01 0-0.019 0.001-0.028 0.001-0.47 0-1.093-0.271-1.806-0.597-0.083-0.037-0.167-0.072-0.252-0.104-0.577-0.224-1.176-0.339-1.754-0.349h-0.049c-0.012 0-0.021-0.001-0.033-0.001h-0.016c-1.344 0.009-2.491 0.501-3.617 1.118-0.156 0.087-0.314 0.176-0.472 0.266zm12.544 12.281c-1.023 0.132-1.438 0.361-1.547 0.318-0.504-0.014-0.74-0.144-1.072-0.416-0.32-0.276-0.631-0.722-0.982-1.21-0.699-0.972-1.68-1.618-2.697-1.927-1.02-0.315-2.049-0.368-3.135-0.37v2.999c0.972 0 1.723 0.067 2.236 0.233 0.516 0.173 0.816 0.368 1.176 0.838 0.295 0.395 0.722 1.069 1.424 1.69 0.685 0.618 1.744 1.163 3.012 1.163h0.039c1.092-0.046 1.57-0.353 1.815-0.332l-0.269-2.986zm-6.921 11.915c-0.139-0.399-0.187-0.94-0.248-1.541-0.257-2.484-2.078-3.88-3.898-4.901l-1.502 2.597c1.742 1.041 2.289 1.565 2.42 2.632 0.057 0.489 0.092 1.287 0.387 2.176 0.289 0.889 0.945 1.9 2.064 2.532 0.981 0.512 1.545 0.475 1.729 0.609l1.264-2.719c-0.966-0.4-1.438-0.402-1.493-0.489-0.434-0.264-0.573-0.495-0.723-0.896zm-9.554 9.389c-0.173-0.31-0.214-0.521-0.219-0.764v-0.045c0.004-0.316 0.128-0.7 0.307-1.132 0.086-0.206 0.185-0.423 0.29-0.648 0.305-0.694 0.457-1.415 0.455-2.111v-0.001-0.001c-0.004-0.384-0.045-0.751-0.118-1.106-0.22-1.066-0.716-2.021-1.266-2.982l-2.596 1.499c0.666 1.144 0.982 1.969 0.98 2.565v0.024c-0.003 0.284-0.052 0.555-0.205 0.907-0.01 0.024-0.021 0.05-0.032 0.075-0.262 0.597-0.785 1.58-0.813 2.89-0.001 0.022-0.002 0.044-0.002 0.066 0 0.025 0 0.052 0.001 0.078 0.009 0.694 0.198 1.464 0.618 2.186 0.588 0.926 1.09 1.186 1.189 1.406l2.463-1.716v-0.002c-0.629-0.826-1.038-1.072-1.052-1.188zm-12.459-3.434c-0.173 0.517-0.366 0.817-0.837 1.175-0.395 0.296-1.067 0.721-1.691 1.424-0.615 0.682-1.154 1.732-1.16 2.991v0.061c0.042 1.059 0.332 1.54 0.331 1.792 0 0.008-0.001 0.017-0.001 0.023l2.988-0.262v-0.002c-0.123-0.943-0.327-1.371-0.324-1.52 0-0.013 0.002-0.023 0.005-0.032 0.014-0.508 0.144-0.742 0.417-1.071 0.275-0.321 0.721-0.633 1.208-0.983 0.972-0.698 1.62-1.68 1.927-2.696 0.316-1.018 0.367-2.048 0.369-3.136h-2.999c0.001 0.974-0.067 1.725-0.233 2.236zm-11.073-2.954c-0.488 0.059-1.287 0.091-2.176 0.389-0.887 0.286-1.902 0.943-2.531 2.063-0.512 0.982-0.476 1.547-0.612 1.73l2.72 1.267c0.4-0.966 0.402-1.441 0.489-1.498 0.265-0.433 0.493-0.568 0.896-0.722 0.4-0.139 0.942-0.186 1.541-0.247 2.484-0.258 3.887-2.077 4.902-3.9l-2.597-1.499c-1.041 1.741-1.566 2.284-2.632 2.417zm-3.294-9.474c-0.001 0.001-0.003 0.002-0.005 0.003-0.049 0.028-0.096 0.056-0.143 0.082-1.068 0.607-1.851 0.897-2.418 0.897-0.01 0-0.021 0-0.031-0.001-0.126-0.001-0.25-0.011-0.378-0.035-0.161-0.03-0.329-0.082-0.521-0.164-0.589-0.248-1.598-0.816-2.959-0.851-0.025-0.001-0.053-0.001-0.078-0.002-0.666-0.004-1.414 0.156-2.122 0.54-0.002 0.001-0.003 0.002-0.005 0.003-0.007 0.003-0.014 0.007-0.02 0.011-0.04 0.021-0.08 0.044-0.119 0.066-0.044 0.028-0.086 0.057-0.128 0.084-0.7 0.468-0.982 0.872-1.181 1.044-0.003 0.003-0.006 0.005-0.008 0.007-0.033 0.027-0.064 0.049-0.094 0.063l1.708 2.467c0.838-0.634 1.088-1.052 1.204-1.065 0.219-0.123 0.391-0.18 0.559-0.204 0.066-0.009 0.134-0.013 0.205-0.014 0.324-0.008 0.729 0.12 1.186 0.311 0.002 0.001 0.004 0.002 0.006 0.002 0.001 0.001 0.002 0.002 0.004 0.002 0.201 0.085 0.412 0.181 0.633 0.283 0.449 0.197 0.911 0.33 1.373 0.398 0.009 0.001 0.018 0.003 0.027 0.004 0.012 0.002 0.025 0.004 0.038 0.005 0.015 0.002 0.028 0.004 0.043 0.006 0.007 0.001 0.015 0.002 0.022 0.003 0.018 0.002 0.035 0.004 0.053 0.006 0.004 0.001 0.008 0.001 0.012 0.002 0.018 0.002 0.035 0.003 0.054 0.005 0.004 0.001 0.009 0.001 0.013 0.001 0.016 0.002 0.031 0.003 0.047 0.005 0.006 0 0.012 0.001 0.02 0.001 0.011 0.001 0.021 0.002 0.033 0.003 0.011 0.001 0.021 0.002 0.032 0.002 0.007 0.001 0.015 0.001 0.021 0.002 0.015 0.001 0.029 0.002 0.044 0.002 0.014 0.001 0.029 0.002 0.043 0.003 0.008 0 0.015 0 0.021 0.001 0.01 0 0.02 0 0.028 0.001 0.049 0.001 0.098 0.002 0.146 0.003h0.021 0.016c1.533-0.01 2.809-0.647 4.092-1.379l-1.494-2.603zm-9.525-10c0.504 0.014 0.74 0.143 1.071 0.418 0.322 0.276 0.634 0.721 0.985 1.209 0.698 0.969 1.679 1.618 2.695 1.927 1.019 0.314 2.049 0.367 3.135 0.369v-3c-0.973 0.002-1.724-0.068-2.236-0.234-0.516-0.172-0.816-0.365-1.176-0.837-0.295-0.395-0.721-1.068-1.425-1.69-0.689-0.624-1.765-1.173-3.05-1.162-1.096 0.046-1.572 0.353-1.814 0.329l0.256 2.991c1.034-0.132 1.453-0.365 1.559-0.32zm5.372-11.595c0.141 0.401 0.188 0.94 0.249 1.541 0.259 2.482 2.079 3.883 3.901 4.903l1.501-2.598c-1.743-1.043-2.287-1.566-2.419-2.635-0.059-0.489-0.093-1.285-0.39-2.176-0.288-0.889-0.943-1.899-2.063-2.531-0.99-0.518-1.553-0.475-1.732-0.612l-1.285 2.711c0.982 0.415 1.465 0.412 1.515 0.499 0.435 0.265 0.574 0.495 0.723 0.898z"/>
<rect id="bgColor" height="100" width="100" y="-22.548" x="-22.549" fill="none"/>
</svg>
