<?xml version="1.0" encoding="UTF-8" standalone="no"?>
<svg xmlns:rdf="http://www.w3.org/1999/02/22-rdf-syntax-ns#" xmlns="http://www.w3.org/2000/svg" xml:space="preserve" height="54.219" viewBox="0 0 56.091999 54.219173" width="56.092" version="1.1" enable-background="new 0 0 100 100" y="0px" x="0px" xmlns:cc="http://creativecommons.org/ns#" xmlns:dc="http://purl.org/dc/elements/1.1/">
<path id="bgColor00" d="m46.455 19.427c-0.645 0-1.268 0.085-1.879 0.206 0.149-0.903 0.234-1.827 0.234-2.771-0.002-9.311-7.549-16.86-16.862-16.862-7.535 0.002-13.9 4.942-16.063 11.763-6.696 0.812-11.885 6.502-11.885 13.415 0 5.802 3.656 10.735 9.2 12.653l1.29-2.579c-4.33-1.308-7.481-5.316-7.491-10.074 0.011-5.81 4.713-10.515 10.528-10.525 3.794-0.055 9.187 3.312 10.797 4.303l1.52-2.586c-1.434-0.802-6.055-3.946-10.787-4.592 2.029-5.135 7.031-8.779 12.892-8.777 7.655 0.014 13.847 6.207 13.862 13.862-0.002 3.333-1.172 6.378-3.126 8.771l2.321 1.899c1.088-1.328 1.964-2.835 2.608-4.458 0.86-0.409 1.816-0.647 2.841-0.647 3.665 0.007 6.633 2.974 6.639 6.639-0.006 3.052-2.096 5.587-4.893 6.345l-2.086 3.238 0.371-0.002c5.251 0 9.602-4.244 9.606-9.581 0-5.322-4.315-9.638-9.637-9.64zm-30.654 34.587c0.729 0.422 1.661 0.172 2.082-0.557 0.421-0.73 5.165-11.994 5.165-11.994s-7.385 9.74-7.806 10.469-0.17 1.662 0.559 2.082zm-2.876-15.785c0.263-0.455 3.228-7.498 3.228-7.498s-4.615 6.09-4.879 6.545c-0.263 0.455-0.107 1.039 0.35 1.303 0.454 0.262 1.038 0.105 1.301-0.35zm-0.925 6.149c-0.421 0.729-0.171 1.66 0.559 2.082 0.729 0.42 1.661 0.17 2.082-0.559s5.165-11.994 5.165-11.994-7.385 9.74-7.806 10.471zm14.206-5.334c0.421-0.729 5.165-11.992 5.165-11.992s-7.385 9.74-7.806 10.469-0.171 1.662 0.559 2.082c0.728 0.421 1.661 0.171 2.082-0.559zm12.496 7.269c0.729 0.42 1.661 0.17 2.082-0.559s5.165-11.994 5.165-11.994-7.385 9.74-7.806 10.471c-0.421 0.729-0.171 1.66 0.559 2.082zm-0.235-7.369c0.263-0.455 3.228-7.498 3.228-7.498s-4.615 6.09-4.879 6.545c-0.263 0.455-0.107 1.039 0.35 1.301 0.454 0.263 1.038 0.107 1.301-0.348zm-9.685 15.07c0.729 0.422 1.661 0.172 2.082-0.557 0.421-0.73 5.165-11.994 5.165-11.994s-7.385 9.74-7.806 10.469-0.171 1.662 0.559 2.082zm-3.629-9.4c-0.421 0.73-0.171 1.662 0.559 2.084 0.729 0.42 1.661 0.17 2.082-0.559s5.165-11.994 5.165-11.994-7.385 9.74-7.806 10.469z"/>
<rect id="bgColor" height="100" width="100" y="-16.928" x="-21.398" fill="none"/>
</svg>
