<?xml version="1.0" encoding="UTF-8" standalone="no"?>
<svg xmlns:rdf="http://www.w3.org/1999/02/22-rdf-syntax-ns#" xmlns="http://www.w3.org/2000/svg" xml:space="preserve" height="47.052" viewBox="0 0 47.051998 47.051998" width="47.052" version="1.1" enable-background="new 0 0 100 100" y="0px" x="0px" xmlns:cc="http://creativecommons.org/ns#" xmlns:dc="http://purl.org/dc/elements/1.1/">
<path id="bgColor00" d="m23.527 8.759c-8.157 0.002-14.765 6.611-14.768 14.768 0.003 8.154 6.61 14.764 14.768 14.766 8.154-0.002 14.764-6.611 14.766-14.766-0.002-8.156-6.612-14.768-14.766-14.768zm0 26.532c-6.499-0.012-11.754-5.268-11.768-11.764 0.014-6.5 5.269-11.754 11.768-11.768 6.498 0.014 11.752 5.268 11.766 11.768-0.014 6.496-5.268 11.752-11.766 11.764zm1.498-35.291h-3v5.877h3v-5.877zm-2.999 47.052h3v-5.873h-3v5.873zm19.151-25.027v3h5.875v-3h-5.875zm-35.302 0h-5.875v3h5.875v-3zm10.125-14.535-2.936-5.086-2.6 1.498 2.936 5.086 2.6-1.498zm15.052 32.074 2.936 5.086 2.6-1.502-2.936-5.086-2.6 1.502zm13.596-26.502-1.498-2.598-5.086 2.936l1.499 2.598 5.085-2.936zm-42.246 20.928 1.502 2.6 5.086-2.938-1.502-2.6-5.086 2.938zm34.185-30.088-2.597-1.498-2.936 5.086 2.597 1.498 2.936-5.086zm-26.123 39.246 2.598 1.5 2.938-5.086-2.6-1.5-2.936 5.086zm27.598-9.496 5.087 2.938 1.501-2.6-5.086-2.938-1.502 2.6zm-29.074-20.252-5.086-2.936-1.499 2.598 5.086 2.936 1.499-2.598z"/>
<rect id="bgColor" height="100" width="100" y="-26.474" x="-26.475" fill="none"/>
</svg>
