<?xml version="1.0" encoding="UTF-8" standalone="no"?>
<svg xmlns:rdf="http://www.w3.org/1999/02/22-rdf-syntax-ns#" xmlns="http://www.w3.org/2000/svg" xml:space="preserve" height="62.755" viewBox="0 0 56.094002 62.754848" width="56.094" version="1.1" enable-background="new 0 0 100 100" y="0px" x="0px" xmlns:cc="http://creativecommons.org/ns#" xmlns:dc="http://purl.org/dc/elements/1.1/">
<rect id="bgColor" height="100" width="100" y="-16.928" x="-21.398" fill="none"/>
<path id="bgColor00" d="m7.232 52.358c-0.966 1.672-1.157 3.369-0.428 3.791 0.729 0.42 2.102-0.596 3.069-2.268 0.965-1.672 13.556-26.521 13.556-26.521s-15.231 23.326-16.197 24.998zm11.426 0.067c0.719-1.244 9.753-19.938 9.753-19.938s-11.675 17.168-12.393 18.412c-0.719 1.246-0.711 2.596 0.02 3.018 0.728 0.42 1.901-0.248 2.62-1.492zm-1.154 5.746c-1.193 2.066-1.568 4.086-0.84 4.506 0.729 0.422 2.287-0.914 3.48-2.982 1.195-2.066 17.07-32.607 17.07-32.607s-18.517 29.016-19.71 31.083zm19.324-7.063c0.455 0.262 1.039 0.105 1.303-0.35 0.262-0.455 3.227-7.498 3.227-7.498s-4.615 6.09-4.879 6.545c-0.263 0.455-0.108 1.039 0.349 1.303zm-7.834-0.199c-0.715 1.24-0.703 2.586 0.025 3.008 0.729 0.42 1.9-0.244 2.615-1.482 0.717-1.24 9.705-19.855 9.705-19.855s-11.629 17.091-12.345 18.329zm17.461-31.482c-0.645 0-1.268 0.085-1.879 0.206 0.149-0.903 0.234-1.827 0.234-2.771-0.002-9.311-7.549-16.86-16.862-16.862-7.535 0.002-13.9 4.942-16.063 11.763-6.696 0.812-11.885 6.502-11.885 13.415 0 7.181 5.597 13.036 13.446 13.484l1.479-2.957h-1.398c-5.814-0.011-10.517-4.713-10.528-10.527 0.011-5.81 4.713-10.515 10.528-10.525 3.794-0.055 9.187 3.312 10.798 4.303l1.52-2.586c-1.434-0.802-6.055-3.946-10.787-4.592 2.029-5.135 7.031-8.779 12.892-8.777 7.655 0.014 13.847 6.207 13.862 13.862-0.002 3.333-1.172 6.378-3.126 8.771l2.321 1.899c1.088-1.328 1.964-2.835 2.608-4.458 0.86-0.409 1.816-0.647 2.841-0.647 3.665 0.007 6.633 2.974 6.639 6.639-0.006 3.653-2.996 6.575-6.613 6.582l-3.527 0.021-1.937 3.005 5.47-0.026c5.251 0 9.602-4.244 9.606-9.581-0.002-5.323-4.317-9.639-9.639-9.641z"/>
</svg>
