<?xml version="1.0" encoding="UTF-8" standalone="no"?>
<svg xmlns:rdf="http://www.w3.org/1999/02/22-rdf-syntax-ns#" xmlns="http://www.w3.org/2000/svg" xml:space="preserve" height="34.256" viewBox="0 0 41.554001 34.256001" width="41.554" version="1.1" enable-background="new 0 0 100 100" y="0px" x="0px" xmlns:cc="http://creativecommons.org/ns#" xmlns:dc="http://purl.org/dc/elements/1.1/">
<rect id="bgColor" height="100" width="100" y="-31.957" x="-27.021" fill="none"/>
<path id="bgColor00" d="m36.511 23.454c-0.439-0.476-1.131-0.616-1.723-0.349-1.229 0.556-2.571 0.852-3.935 0.852-1.323-0.002-2.665-0.279-3.95-0.871-3.471-1.601-5.512-5.031-5.512-8.615 0-1.331 0.277-2.679 0.874-3.964 0.878-1.902 2.303-3.356 4.01-4.308 0.566-0.314 0.866-0.954 0.746-1.591-0.12-0.638-0.635-1.122-1.276-1.208-0.64-0.085-1.279-0.128-1.918-0.126-5.582-0.004-10.923 3.18-13.414 8.584-0.924 1.997-1.363 4.104-1.363 6.178-0.002 5.579 3.181 10.92 8.58 13.414 1.998 0.922 4.102 1.361 6.17 1.361 5.236 0 10.256-2.809 12.92-7.612 0.313-0.568 0.231-1.267-0.209-1.745zm-12.711 6.356c-1.648 0-3.316-0.346-4.913-1.083-4.306-1.986-6.836-6.244-6.838-10.69 0-1.649 0.349-3.322 1.087-4.922 1.592-3.457 4.646-5.769 8.089-6.548-0.658 0.8-1.227 1.696-1.681 2.682-0.783 1.687-1.153 3.47-1.153 5.223-0.003 4.717 2.692 9.231 7.255 11.339l0.63-1.361-0.628 1.363c1.684 0.776 3.461 1.145 5.206 1.145 0.217 0 0.433-0.006 0.648-0.017-2.137 1.844-4.882 2.869-7.702 2.869zm-19.836-27.915-0.936-1.895-0.936 1.895-2.092 0.305 1.514 1.475-0.357 2.082 1.871-0.982 1.869 0.982-0.357-2.082 1.514-1.475-2.09-0.305zm37.59 28.804-2.09-0.305-0.936-1.895-0.936 1.895-2.092 0.305 1.514 1.475-0.357 2.082 1.871-0.982 1.869 0.982-0.357-2.082 1.514-1.475z"/>
</svg>
