<?xml version="1.0" encoding="UTF-8" standalone="no"?>
<svg xmlns:rdf="http://www.w3.org/1999/02/22-rdf-syntax-ns#" xmlns="http://www.w3.org/2000/svg" xml:space="preserve" overflow="visible" height="35.552" viewBox="0 0 52.199 35.552" width="52.199" version="1.1" enable-background="new 0 0 52.199 35.552" xmlns:cc="http://creativecommons.org/ns#" xmlns:dc="http://purl.org/dc/elements/1.1/">
<path id="bgColor00" d="m47.689 7.761c-4.862-4.862-12.934-7.761-21.591-7.761-14.39 0-26.098 7.974-26.098 17.775 0 3.599 1.559 7.063 4.511 10.015 4.858 4.858 12.931 7.762 21.587 7.762 8.657 0 16.729-2.903 21.592-7.762 2.948-2.952 4.51-6.416 4.51-10.015-0.001-3.602-1.562-7.065-4.511-10.014zm-21.55 25.992c-8.189 0-15.789-2.703-20.319-7.234-2.604-2.604-3.983-5.631-3.983-8.743 0-3.115 1.379-6.138 3.983-8.746 4.53-4.527 12.13-7.234 20.319-7.234 8.191 0 15.789 2.707 20.315 7.234 2.609 2.608 3.987 5.631 3.987 8.746 0 8.808-10.901 15.977-24.302 15.977zm-4.487-7.831l-6.521-13.736-0.045 0.049v13.688h-3.321v-16.527h5.264l6.297 13 0.045-0.045v-12.955h3.32v16.525h-5.039zm8.899 0v-16.526h3.55v13.777h7.164v2.748h-10.714z"/>
</svg>
