<?xml version="1.0" encoding="UTF-8" standalone="no"?>
<svg xmlns="http://www.w3.org/2000/svg" xml:space="preserve" height="105.94" width="105.94" version="1.1" xmlns:xlink="http://www.w3.org/1999/xlink" viewBox="0 0 105.941 105.943"><defs>
<linearGradient id="linearGradient2970" y2="37.833" gradientUnits="userSpaceOnUse" x2="54.422" y1="66.637" x1="54.278"><stop stop-color="#fff" stop-opacity=".11" offset=".52772"/><stop stop-color="#fdffff" stop-opacity=".4578" offset=".92330"/><stop stop-color="#fcffff" stop-opacity=".5" offset="1"/></linearGradient><linearGradient id="linearGradient2973" y2="52.969" gradientUnits="userSpaceOnUse" x2="93.993" y1="52.97" x1="11.761"><stop stop-color="#fff" stop-opacity="0" offset="0"/><stop stop-color="#fff" stop-opacity="0.36" offset=".35285"/><stop stop-color="#fff" stop-opacity="0.7" offset=".57468"/><stop stop-color="#fff" stop-opacity=".22" offset="1"/></linearGradient><linearGradient id="linearGradient2976" y2="37.831" gradientUnits="userSpaceOnUse" x2="54.47" y1="70.757" x1="54.329"><stop stop-color="#fff" stop-opacity="0" offset=".12942"/><stop stop-color="#fdffff" stop-opacity=".7647" offset=".92520"/><stop stop-color="#fcffff" stop-opacity="0.83" offset="1"/></linearGradient></defs>
<path id="bgColor00" d="m52.793 105.94c-29.254 0-52.971-23.711-52.969-52.966 0-29.257 23.715-52.971 52.972-52.974 29.255 0.002 52.97 23.718 52.97 52.979-0.003 29.25-23.712 52.965-52.973 52.961z"/>
<radialGradient id="SVGID_1_" gradientUnits="userSpaceOnUse" cy="889.8" cx="1016" gradientTransform="translate(-966.38 -836.27)" r="55.968">
	<stop stop-color="#fff" stop-opacity="0" offset=".93060"/>
	<stop stop-color="#fff" offset="1"/>
</radialGradient>
<path fill="url(#SVGID_1_)" d="m105.83 52.973c0-29.261-23.715-52.979-52.976-52.977-29.249 0.006-52.964 23.72-52.964 52.977-0.002 29.255 23.713 52.977 52.972 52.967 29.252 0.002 52.968-23.715 52.97-52.97zm-86.832-17.073c-11.171-0.001-10.979-4.573-9.771-6.78 8.443-15.44 24.792-25.927 43.632-25.926 19.187 0 35.785 10.871 44.093 26.771 1.014 1.944 0.885 5.936-16.828 5.938-18.308-0.006-45.506-0.006-61.126-0.003zm-9.613 41.212c-1.303-2.343-1.242-7.068 9.457-7.072 15.367 0.001 42.646 0.001 60.961 0.001 16.918-0.002 17.896 4.59 16.66 6.842-8.453 15.405-24.789 25.867-43.605 25.857-18.718 0.01-34.985-10.347-43.473-25.628z"/>
<path fill="url(#linearGradient2976)" d="m100.36 57.26c-0.369-0.021-0.674-0.324-0.68-0.707 0-0.012 0-0.316-0.004-0.328l0.002-6.729c-0.002-0.354 0.295-0.717 0.652-0.719 0.002-0.008 0.436-0.02 0.438-0.029-0.016-0.514-0.029-1.02-0.053-1.537-0.3-3.582-0.998-5.115-2.064-8.43-0.153-0.414-0.93-1.236-2.047-1.236-1.283 0-83.135 0.004-84.44 0.006-1.115-0.008-1.892 0.818-2.05 1.232-1.438 4.482-2.264 9.238-2.264 14.188 0 4.771 0.766 9.373 2.121 13.721 0.193 0.574 1.162 1.705 2.629 1.703 1.521 0.002 82.088 0 83.568-0.004 1.467 0 2.434-1.127 2.631-1.695 1.092-3.502 1.771-5.611 2.002-9.412-0.005-0.009-0.438-0.019-0.441-0.024zm-4.33-0.081 0.209-0.076-2.713 0.094 0.456 0.824c-0.171 2.975-1.415 6.502-1.415 6.502l-0.234 0.029c-12.695-0.006-63.189-0.01-75.98-0.01-1.724 0-2.795-0.016-3.029-0.021-1.078-3.801-1.694-7.674-1.694-11.551 0.002-3.896 0.641-7.764 1.723-11.564 0.256-0.004 1.047-0.018 2.279-0.02 11.774 0.002 65.133 0.021 76.913 0.023 0 0-0.256-0.008 0 0 1.107 2.801 1.449 6.461 1.449 6.461l-0.457 0.877c-0.035 0.129 2.62 0.523 2.618 0.668-0.004 0-0.008 0.973-0.008 0.98l-0.113 6.784z"/><path fill="url(#linearGradient2973)" d="m93.446 48.996c0.113-0.396 0.36-0.748 0.547-1.125-0.24-2.641-0.858-4.914-1.449-6.461-0.247-0.008-1.018-0.02-2.216-0.02-11.394-0.002-63.44-0.002-74.828-0.004-1.192 0.002-1.957 0.016-2.205 0.02-1.047 3.801-1.664 7.668-1.666 11.564 0 3.877 0.596 7.75 1.643 11.551 0.227 0.006 1.263 0.021 2.93 0.021 12.372 0 61.21 0.004 73.488 0.01 1.651 0.002 2.67-0.021 2.882-0.029 0.707-2.572 1.19-3.719 1.415-6.502-0.061-0.119-0.132-0.234-0.204-0.355-0.156-0.262-0.305-0.521-0.376-0.83-0.021-0.1-0.032-0.209-0.03-0.313l-0.002-6.127c0-0.008 0.004-0.98 0.008-0.98 0.001-0.145 0.029-0.291 0.063-0.42z"/><path fill="url(#linearGradient2970)" d="m93.986 58.021-0.456-0.824s4.567-0.008 4.568-0.057l-0.029-7.238c0.002-0.197 0.16-0.84 0.357-0.834 0-0.074 0.252-0.143 0.268-0.211 0.047-0.463 0.154-0.898 0.234-1.344-0.263-3.254-0.884-4.482-1.813-7.531-0.198-0.221-0.985-0.682-2.155-0.684-6.089 0.006-75.115 0-81.207 0.004-1.175 0-1.953 0.447-2.154 0.68-1.28 4.174-2.017 8.521-2.017 12.988 0 4.355 0.694 8.631 1.926 12.729 0.213 0.313 1.227 0.938 2.813 0.938 6.681 0 73.486-0.002 80.103-0.004 1.582 0.004 2.582-0.619 2.791-0.936 0.932-3.076 1.524-4.338 1.758-7.674-0.036-0.06-4.987-0.002-4.987-0.002zm2.162-1.498c-0.002 0.104-2.64 0.574-2.618 0.674 0.063 0.268-33.467-0.09-33.467-0.09l-0.02-0.83-1.564-0.029-0.01 1.904s35.454-0.25 35.517-0.131c-0.232 2.783-1.415 6.502-1.415 6.502l-0.234 0.029c-12.695-0.006-63.189-0.01-75.98-0.01-1.724 0-2.795-0.016-3.029-0.021-1.082-3.801-1.698-7.674-1.698-11.551 0.002-3.896 0.641-7.764 1.723-11.564 0.256-0.004 1.047-0.018 2.279-0.02 11.774 0.002 65.133 0.021 76.913 0.023 0 0 1.449 4.056 1.449 6.461l-0.457 0.877c-0.035 0.129 2.62 0.523 2.618 0.668-0.004 0-0.008 0.973-0.008 0.98l0.001 6.128z"/><path d="m60.32 57.179c-0.307-0.004-0.557-0.25-0.557-0.557l-0.002-6.359c0-0.307 0.25-0.555 0.559-0.555l40.136 0.031c0.311-0.002 0.082 0.271 0.086 0.586l-0.043 6.18c0 0.314 0.602 0.631 0.293 0.631l-40.48 0.043z"/><path fill="#6e6e6e" d="m59.251 57.136c-0.383 0.002-0.773-0.037-0.771-0.363l-0.002-6.521c-0.065-0.813 0.273-1.318 0.648-1.342 0.021-0.004 0.049-0.006 0.076-0.004l41.57-0.158-0.165 1.061c-0.033-0.01-40.237-0.016-40.237-0.016-0.312 0.004-0.312 0.773-0.312 1.18l-0.016 6.088-0.791 0.075z"/>
	<radialGradient id="SVGID_5_" gradientUnits="userSpaceOnUse" cy="55.883" cx="48.461" r="55.251">
		<stop stop-color="#fff" stop-opacity="0" offset=".91550"/>
		<stop stop-color="#fcffff" offset="1"/>
	</radialGradient>
	<path fill="url(#SVGID_5_)" d="m18.809 35.901c-11.171-0.001-10.978-4.573-9.771-6.78 8.443-15.44 24.793-25.927 43.633-25.926 19.187 0 35.785 10.871 44.093 26.771 1.014 1.944 0.885 5.936-16.828 5.938-18.308-0.006-45.507-0.006-61.127-0.003z"/>
	<radialGradient id="SVGID_6_" gradientUnits="userSpaceOnUse" cy="51.393" cx="49.966" r="53.088">
		<stop stop-color="#fff" stop-opacity="0" offset=".91550"/>
		<stop stop-color="#fcffff" offset="1"/>
	</radialGradient>
	<path fill="url(#SVGID_6_)" d="m9.196 77.113c-1.303-2.343-1.242-7.068 9.457-7.072 15.367 0.001 42.646 0.001 60.961 0.001 16.918-0.002 17.896 4.59 16.66 6.842-8.453 15.405-24.789 25.866-43.605 25.866-18.717 0-34.985-10.356-43.473-25.637z"/>
</svg>
