<?xml version="1.0" encoding="UTF-8" standalone="no"?>
<svg xmlns:rdf="http://www.w3.org/1999/02/22-rdf-syntax-ns#" xmlns="http://www.w3.org/2000/svg" xml:space="preserve" viewBox="0 0 118.90472 118.93042" height="100%" width="100%" version="1.0" enable-background="new 0 0 118.166 118.164" xmlns:cc="http://creativecommons.org/ns#" xmlns:xlink="http://www.w3.org/1999/xlink" overflow="visible" xmlns:dc="http://purl.org/dc/elements/1.1/"><defs><linearGradient id="linearGradient2857" y2="151.56" gradientUnits="userSpaceOnUse" x2="-136.23" gradientTransform="translate(175.53,-85.977)" y1="88.972" x1="-136.12"><stop stop-color="#fff" stop-opacity=".9469" offset="0"/><stop stop-color="#fff" stop-opacity=".26549" offset="1"/></linearGradient><linearGradient id="linearGradient2859" y2="143.86" gradientUnits="userSpaceOnUse" x2="83.731" gradientTransform="translate(-44.28,-24.938)" y1="24.938" x1="83.731"><stop stop-opacity=".7" offset="0"/><stop stop-opacity=".3" offset="1"/></linearGradient></defs>
<g transform="translate(20)"><path id="bgColor00" style="color:#000000;enable-background:accumulate" fill="#0f0" d="m-10.4 117.85c-3.4673-1.2361-6.6009-4.1812-8.2588-7.762-1.2271-2.6505-1.3035-5.5912-1.3181-50.74l-0.0154-47.926 1.9585-3.749c1.5854-3.0349 2.6725-4.122 5.7074-5.7074l3.749-1.9585 47.926 0.0155c44.836 0.0144 48.108 0.098 50.746 1.2964 3.5461 1.611 7.0805 5.5863 8.0407 9.044 1.0506 3.7834 1.0113 94.519-0.0426 98.316-0.45781 1.649-1.9838 4.0146-3.6912 5.722s-4.0729 3.2334-5.722 3.6912c-4.498 1.2487-95.521 1.0263-99.079-0.24204h0.00003z"/><path style="color:#000000;enable-background:accumulate" fill="url(#linearGradient2857)" d="m-6.89 2.289-3.5925 1.9375c-2.9183 1.589-3.9861 2.6771-5.5106 5.7188l-1.8572 3.7812v39.719c7.6447 2.7679 33.25 11.422 57.267 12.094 24.508 0.68511 46.269-6.0588 57.024-10.094-0.03377-21.313-0.27249-41.062-0.73069-42.781-0.92328-3.4654-4.2928-7.4479-7.7026-9.0625-2.5364-1.201-5.6908-1.2981-48.804-1.3125h-46.094z"/><path style="color:#000000;enable-background:accumulate" fill="url(#linearGradient2859)" d="m-8.561 0-3.75 1.9688c-3.035 1.585-4.134 2.683-5.719 5.718l-1.9688 3.75 0.03125 47.906c0.01456 45.148 0.08536 48.1 1.3125 50.75 1.6579 3.5809 4.7827 6.5139 8.25 7.75 3.558 1.2684 94.596 1.4987 99.094 0.25 1.649-0.4578 4.0113-1.9801 5.7188-3.6875 1.7074-1.7074 3.2297-4.0697 3.6875-5.7188 1.0539-3.7964 1.0819-94.529 0.0312-98.312-0.9602-3.4577-4.4851-7.4515-8.0312-9.0625-2.6378-1.1984-5.9141-1.2668-50.75-1.2812l-47.913-0.03zm1.6562 2.4375h46.125c43.127 0.0138 46.244 0.09734 48.781 1.25 3.411 1.5496 6.8264 5.3929 7.75 8.7188 1.0106 3.6392 0.98253 90.911-0.0312 94.562-0.44036 1.5862-1.9201 3.8576-3.5625 5.5s-3.9138 3.1222-5.5 3.5625c-4.3265 1.2011-91.89 0.97004-95.312-0.25-3.3352-1.189-6.3428-4.0243-7.9375-7.4688-1.1804-2.5495-1.2672-5.3846-1.2812-48.812v-46.09l1.875-3.5938c1.525-2.9192 2.5808-3.975 5.5-5.5l3.5937-1.875z"/></g></svg>
