<?xml version="1.0" encoding="UTF-8" standalone="no"?>
<svg xmlns:rdf="http://www.w3.org/1999/02/22-rdf-syntax-ns#" xmlns="http://www.w3.org/2000/svg" xml:space="preserve" viewBox="0 0 121.9461 120.87477" height="100%" width="100%" version="1.0" enable-background="new 0 0 118.166 118.165" xmlns:cc="http://creativecommons.org/ns#" xmlns:xlink="http://www.w3.org/1999/xlink" overflow="visible" xmlns:dc="http://purl.org/dc/elements/1.1/">
 <defs>
 <linearGradient id="linearGradient2889" y2="-3.6903" gradientUnits="userSpaceOnUse" x2="385.81" y1="192.2" x1="385.81"><stop offset="0"/><stop stop-opacity="0" offset="1"/></linearGradient><linearGradient id="linearGradient2891" y2="146.98" gradientUnits="userSpaceOnUse" x2="58.707" y1="208.97" x1="58.707"><stop stop-opacity=".57255" offset="0"/><stop stop-opacity=".14602" offset="1"/></linearGradient></defs>
<g transform="translate(34)"><g transform="matrix(1.4048 0 0 1.4048 -356.66 2.0064)"><path id="bgColor00" style="color:#000000;enable-background:accumulate" fill="#0f0" transform="matrix(.42736 0 0 .44451 108.78 -.11418)" d="m486.04 94.254c0 53.221-44.876 96.364-100.23 96.364-55.357 0-100.23-43.144-100.23-96.364 0-53.221 44.876-96.364 100.23-96.364 55.357 0 100.23 43.144 100.23 96.364z"/></g><g stroke-width="1.0001" stroke="url(#linearGradient2891)" transform="matrix(1.3802 0 0 1.3802 -54.975 -183.93)"><path style="color:#000000;enable-background:accumulate" d="m486.04 94.254c0 53.221-44.876 96.364-100.23 96.364-55.357 0-100.23-43.144-100.23-96.364 0-53.221 44.876-96.364 100.23-96.364 55.357 0 100.23 43.144 100.23 96.364z" transform="matrix(.30426 0 0 .31648 -58.392 148.29)" stroke="url(#linearGradient2889)" stroke-width="2.9885" fill="none"/></g><path opacity=".8" style="color:#000000;enable-background:accumulate" fill="#fff" d="m22.64 23.149c-18.732 2.321-32.012 19.668-29.647 38.752 0.11702 0.9439 0.43366 1.8098 0.62115 2.7256-0.063778-1.4262-0.22408-2.8745-0.11955-4.2676 0.17306-2.3054 0.57961-4.5542 1.1816-6.7276 0.602-2.1734 1.4148-4.2602 2.4059-6.2495 0.99121-1.9893 2.1808-3.8787 3.5216-5.632 1.3407-1.7535 2.8199-3.371 4.4704-4.8364 1.6505-1.4655 3.452-2.7835 5.3725-3.9091 1.9205-1.1257 3.9569-2.0698 6.1078-2.8037 2.1509-0.73391 4.4278-1.2414 6.7693-1.5317 2.3415-0.29015 4.6424-0.34991 6.9074-0.16321 2.265 0.18668 4.5013 0.60127 6.6384 1.2241 2.1373 0.62285 4.1749 1.4649 6.1332 2.4833 1.9583 1.0183 3.8185 2.222 5.5467 3.5952 1.7282 1.3731 3.343 2.9148 4.7898 4.6021 1.4468 1.6872 2.7444 3.5126 3.8587 5.4732 1.1143 1.9607 2.0264 4.0461 2.7571 6.2394 0.44161 1.3259 0.67047 2.7649 0.95685 4.1638-0.04172-0.93342 0.05394-1.8512-0.06294-2.7947-2.365-19.084-19.478-32.664-38.209-30.344z"/></g></svg>
