<?xml version="1.0" encoding="UTF-8" standalone="no"?>
<svg xmlns:rdf="http://www.w3.org/1999/02/22-rdf-syntax-ns#" xmlns="http://www.w3.org/2000/svg" xml:space="preserve" overflow="visible" height="229.34" viewBox="0 0 61.492 229.343" width="61.492" version="1.0" enable-background="new 0 0 61.492 229.343" xmlns:cc="http://creativecommons.org/ns#" xmlns:dc="http://purl.org/dc/elements/1.1/">
<path id="bgColor00" fill="#0ff0af" d="m36.403 0h-4.912-1.491-4.912l-0.087 4.911-2.93 164.19c-5.583 1.64-10.629 4.86-14.505 9.3-4.878 5.6-7.566 12.77-7.566 20.2 0 4.15 0.814 8.17 2.418 11.97 1.55 3.66 3.765 6.95 6.587 9.77s6.11 5.04 9.771 6.58c3.794 1.61 7.82 2.42 11.969 2.42s8.175-0.81 11.969-2.42c3.662-1.54 6.95-3.76 9.772-6.58 2.821-2.82 5.039-6.11 6.587-9.77 1.604-3.8 2.418-7.82 2.418-11.97 0-7.43-2.688-14.6-7.567-20.2-3.875-4.44-8.922-7.66-14.505-9.3l-2.929-164.19-0.087-4.91zm-31.403 198.6c0-12.95 9.558-23.66 22-25.47l3-168.13h1.491l3 168.13c12.443 1.81 22 12.52 22 25.47 0 14.22-11.528 25.74-25.747 25.74-14.217 0-25.744-11.52-25.744-25.74z"/>
</svg>
