<?xml version="1.0" encoding="UTF-8" standalone="no"?>
<svg xmlns="http://www.w3.org/2000/svg" width="113.44px" xml:space="preserve" height="112.09px" viewBox="0 0 113.441 112.09" baseProfile="tiny" version="1.2" y="0px" x="0px" xmlns:xlink="http://www.w3.org/1999/xlink">
<g transform="translate(-43.28 -43.955)">
	<path d="m149.32 44.653l-4.999 8.292h-91.478l-5-8.292h101.48z" stroke="#000" stroke-width="2" fill="#008080"/>
	<polygon points="140.08 45.272 148.21 45.272 143.85 52.31 135.72 52.31" fill="#0C5A59"/>
	<polygon points="135.19 45.261 140.1 45.261 135.75 52.29 130.84 52.29" fill="#00C0C0"/>
	<polygon stroke="#40FFFF" points="131.17 45.336 135.29 45.336 131.02 52.238 126.9 52.238" fill="#40FFFF"/>
	<polygon points="48.877 45.33 59.815 45.33 64.338 52.354 53.401 52.354" fill="#0C5A59"/>
	<path d="m146.52 53.05c5.239 1.595 8.233 5.264 9.493 8.292l0.009 93.921-112.04 0.084 0.146-93.846c2.728-4.262 6.274-8.327 10.913-8.768l91.481 0.324z" stroke="#000" stroke-width="2" fill="#008080"/>
	<path d="m146.21 53.669c5.533 1.8 7.573 4.857 8.648 6.975h-8.885c0.722-1.799 0.611-4.175-3.889-6.975h4.12z" fill="#0C5A59"/>
	<path d="m142.76 53.657c2.445 1.319 6 4.5 3.557 7.012h-9.025c0.861-1.319 2.25-3.633-2.111-7.012h7.57z" fill="#12A09E"/>
	<path d="m132.75 53.72v6.902h-4.463c1.146-1.285 1.338-5.177 0-6.902h4.46z" stroke="#40FFFF" fill="#40FFFF"/>
	<path d="m136.03 53.732c3.654 1.721 3.482 5.765 2.384 6.885h-7.2c1.232-1.378 2.201-5.164 0-6.885h4.82z" fill="#0AD4D2"/>
	<path d="m70.633 53.394c-4.341 2.073-6.779 5.764-5.179 7.457h-9.821v-7.533l15 0.076z" fill="#00C0C0"/>
	<path d="m65.496 53.443c-8.408 1.756-9.194 5.768-9.098 7.426h-11.044c3.399-4.957 6.429-6.925 9.622-7.528l10.52 0.102z" fill="#0C5A59"/>
	<path d="m151.48 61.483l0.045 93.008-12.15-0.008 0.09-92.966 12.02-0.031z" fill="#12A09E"/>
	<path d="m155.6 61.491l-0.014 93.451-4.119 0.041v-93.47l4.13-0.019z" fill="#0C5A59"/>
	<path d="m56.229 61.594l-0.17 92.959-11.373 0.006 0.155-92.972 11.388 0.006z" fill="#0C5A59"/>
	<path d="m139.51 61.541l0.078 92.897h-8.148v-92.899h8.07z" fill="#0AD4D2"/>
	<path d="m131.42 61.541l0.035 92.737h-3.66v-92.739h3.62z" stroke="#40FFFF" fill="#40FFFF"/>
	<rect height="93.016" width="8.941" y="61.564" x="56.355" fill="#00C0C0"/>
	<line y2="61.126" x2="44.712" stroke="#000" y1="61.126" x1="156.07" fill="none"/>
	<line y2="152.86" stroke-width="2" x2="68.182" stroke="#40FFFF" y1="69.227" x1="68.182" fill="none"/>
	<path d="m67.543 45.243l4.524 7.024h-7.938l-4.523-7.024h7.937z" fill="#00C0C0"/>
</g>
</svg>
