<?xml version="1.0" encoding="UTF-8" standalone="no"?>
<svg xmlns="http://www.w3.org/2000/svg" xml:space="preserve" height="47.187" width="45.102" version="1.2" viewBox="0 0 45.102001 47.187252">
<path id="bgColor00" d="m1.362 1.425c1.816-1.9 4.76-1.9 6.576 0l35.802 37.458c1.816 1.899 1.816 4.98 0 6.88-1.816 1.899-4.76 1.899-6.576 0l-35.802-37.458c-1.816-1.9-1.816-4.98 0-6.88z"/><path id="bgColor01" d="m43.74 1.425c-1.816-1.9-4.76-1.9-6.576 0l-35.802 37.459c-1.816 1.899-1.816 4.98 0 6.88 1.816 1.899 4.76 1.899 6.576 0l35.802-37.458c1.817-1.901 1.817-4.981 0-6.881z"/>
</svg>
